<svg width="41" height="24" viewBox="0 0 41 24" fill="none" xmlns="http://www.w3.org/2000/svg">
<g clip-path="url(#clip0_3454_8859)">
<path d="M29.7151 17.5572C29.3856 17.5572 29.0636 17.4598 28.7896 17.2772C28.5156 17.0946 28.3021 16.8351 28.1759 16.5314C28.0498 16.2277 28.0168 15.8935 28.081 15.571C28.1452 15.2486 28.3038 14.9524 28.5367 14.7198C28.7696 14.4873 29.0664 14.329 29.3895 14.2648C29.7126 14.2006 30.0476 14.2334 30.352 14.3592C30.6564 14.4849 30.9166 14.6979 31.0996 14.9712C31.2827 15.2446 31.3805 15.5659 31.3806 15.8947C31.3801 16.3353 31.2044 16.7578 30.8922 17.0695C30.58 17.3811 30.1567 17.5565 29.7151 17.5572ZM11.3047 17.5572C10.9753 17.5572 10.6532 17.4598 10.3792 17.2772C10.1053 17.0946 9.89172 16.8351 9.76559 16.5314C9.63945 16.2277 9.6064 15.8935 9.67062 15.571C9.73483 15.2486 9.89342 14.9524 10.1263 14.7198C10.3593 14.4873 10.656 14.329 10.9792 14.2648C11.3023 14.2006 11.6372 14.2334 11.9416 14.3592C12.246 14.4849 12.5062 14.6979 12.6893 14.9712C12.8724 15.2446 12.9701 15.5659 12.9702 15.8947C12.9698 16.3354 12.7942 16.7579 12.482 17.0696C12.1698 17.3812 11.7464 17.5566 11.3047 17.5572ZM30.3124 7.54543L33.6411 1.79238C33.6866 1.7138 33.7162 1.62704 33.7281 1.53706C33.7401 1.44707 33.7341 1.35562 33.7106 1.26794C33.6871 1.18025 33.6466 1.09803 33.5912 1.02599C33.5359 0.953947 33.4669 0.893484 33.3881 0.848055C33.3094 0.802625 33.2224 0.773118 33.1323 0.761219C33.0421 0.749319 32.9504 0.75526 32.8626 0.778702C32.7747 0.802144 32.6923 0.842628 32.6201 0.897842C32.5479 0.953057 32.4873 1.02192 32.4418 1.1005L29.071 6.92621C26.4934 5.7523 23.5985 5.09863 20.5096 5.09863C17.4207 5.09863 14.5261 5.75324 11.9485 6.92621L8.57807 1.1005C8.5326 1.0219 8.47207 0.953004 8.39992 0.897747C8.32777 0.842489 8.24542 0.801953 8.15757 0.778453C8.06973 0.754953 7.9781 0.748949 7.88793 0.760784C7.79775 0.772619 7.7108 0.802061 7.63203 0.847428C7.55326 0.892796 7.48422 0.953202 7.42884 1.0252C7.37346 1.09719 7.33284 1.17936 7.30929 1.26702C7.28574 1.35468 7.27972 1.44611 7.29158 1.53609C7.30344 1.62607 7.33295 1.71284 7.37841 1.79144L10.7074 7.54543C4.99135 10.6478 1.08166 16.4221 0.509766 23.2445H40.5101C39.9376 16.4221 36.0282 10.6478 30.3124 7.54543Z" fill="#001252"/>
</g>
<defs>
<clipPath id="clip0_3454_8859">
<rect width="40" height="22.4885" fill="white" transform="translate(0.5 0.755859)"/>
</clipPath>
</defs>
</svg>
