<svg width="41" height="40" viewBox="0 0 41 40" fill="none" xmlns="http://www.w3.org/2000/svg">
<path fill-rule="evenodd" clip-rule="evenodd" d="M19.7 40C10.649 40 6.12355 40 3.31178 37.1882C0.500001 34.3765 0.5 29.8509 0.5 20.7999L0.5 19.1999C0.5 10.1489 0.499999 5.62341 3.31177 2.81162C6.12355 6.50233e-07 10.649 4.61884e-07 19.7 6.96339e-08H19.7L21.3 2.92947e-10C30.351 -3.91962e-07 34.8765 -6.50233e-07 37.6882 2.81161C40.5 5.62336 40.5 10.1489 40.5 19.1999V20.7999C40.5 29.8509 40.5 34.3765 37.6882 37.1882C34.8765 40 30.351 40 21.3 40H19.7Z" fill="#5070A0"/>
<path d="M23.8412 24.6509C22.7816 24.3789 22.0386 23.405 22.0386 22.2881V9.12923C22.0386 7.86059 23.2054 6.93017 24.409 7.23906L32.0308 9.19522C33.0904 9.46714 33.8334 10.441 33.8334 11.5579V24.7168C33.8334 25.9854 32.6666 26.9159 31.4631 26.607L23.8412 24.6509Z" fill="#F2F8FF"/>
<path d="M8.96937 30.8047C7.90972 30.5327 7.16675 29.5589 7.16675 28.4419V15.283C7.16675 14.0144 8.33353 13.084 9.5371 13.3929L17.159 15.349C18.2186 15.6209 18.9616 16.5948 18.9616 17.7117V30.8706C18.9616 32.1393 17.7948 33.0697 16.5912 32.7608L8.96937 30.8047Z" fill="#F2F8FF"/>
<path d="M16.2272 27.7278C15.1215 27.4558 14.3462 26.4819 14.3462 25.365V12.2062C14.3462 10.9375 15.5638 10.0071 16.8197 10.316L24.7729 12.2721C25.8786 12.5441 26.6539 13.5179 26.6539 14.6349V27.7937C26.6539 29.0624 25.4364 29.9928 24.1804 29.6839L16.2272 27.7278Z" fill="#F2F8FF"/>
<path d="M21.5257 28.7179C21.1991 28.6316 20.9666 28.3321 20.9552 27.9827L20.6308 18.0565C20.537 16.7427 19.5967 15.6979 18.6141 15.3902C18.5589 15.3729 18.5 15.3962 18.4673 15.4454C18.4341 15.4954 18.4469 15.5647 18.4933 15.6019C18.7359 15.7967 19.4037 16.4324 19.4037 17.5289L19.4018 28.1596L21.5257 28.7179Z" fill="#5070A0"/>
<path d="M28.7051 26.1538C28.3788 26.0658 28.1461 25.7556 28.1347 25.3934L27.8102 15.0831C27.7163 13.7185 26.7761 12.6331 25.7935 12.3135C25.7384 12.2956 25.6795 12.3197 25.6468 12.3708C25.6136 12.4228 25.6264 12.4948 25.6727 12.5334C25.9153 12.7357 26.5832 13.3961 26.5832 14.5351L26.5812 25.5817L28.7051 26.1538Z" fill="#5070A0"/>
</svg>
