<svg width="64" height="64" viewBox="0 0 64 64" fill="none" xmlns="http://www.w3.org/2000/svg">
<path d="M51.2 0H12.8C5.73076 0 0 5.73076 0 12.8V51.2C0 58.2692 5.73076 64 12.8 64H51.2C58.2692 64 64 58.2692 64 51.2V12.8C64 5.73076 58.2692 0 51.2 0Z" fill="white"/>
<path d="M10.6666 32.0001C10.6666 20.218 20.2179 10.6667 32 10.6667V32.0001H10.6666Z" fill="#FAFCFF"/>
<path d="M32 10.6667C43.7821 10.6667 53.3333 20.218 53.3333 32.0001H32V10.6667Z" fill="#B1D5FF"/>
<path d="M32 32H53.3333C53.3333 43.7821 43.7821 53.3333 32 53.3333V32Z" fill="#3A47A8"/>
<path d="M10.6666 32H32V53.3333C20.2179 53.3333 10.6666 43.7821 10.6666 32Z" fill="#B1D5FF"/>
</svg>
