<svg width="364" height="56" viewBox="0 0 364 56" fill="none" xmlns="http://www.w3.org/2000/svg">
<g clip-path="url(#clip0_3452_2675)">
<rect width="364" height="56" rx="8" fill="white"/>
<path d="M2.00488 28.4521V29.7646H-5.17285L-5.22754 28.7734L-0.93457 22.0469H0.384766L-1.04395 24.4941L-3.51172 28.4521H2.00488ZM0.760742 22.0469V32H-0.886719V22.0469H0.760742ZM11.6574 30.5166V26.9893C11.6574 26.7249 11.6096 26.4971 11.5139 26.3057C11.4182 26.1143 11.2723 25.9661 11.0764 25.8613C10.885 25.7565 10.6434 25.7041 10.3518 25.7041C10.0829 25.7041 9.85046 25.7497 9.65449 25.8408C9.45853 25.932 9.30586 26.055 9.19648 26.21C9.08711 26.3649 9.03242 26.5404 9.03242 26.7363H7.3918C7.3918 26.4447 7.46244 26.1621 7.60371 25.8887C7.74499 25.6152 7.95007 25.3714 8.21895 25.1572C8.48783 24.943 8.80911 24.7744 9.18281 24.6514C9.55651 24.5283 9.97578 24.4668 10.4406 24.4668C10.9966 24.4668 11.4888 24.5602 11.9172 24.7471C12.3501 24.9339 12.6896 25.2165 12.9357 25.5947C13.1864 25.9684 13.3117 26.4378 13.3117 27.0029V30.291C13.3117 30.6283 13.3345 30.9313 13.3801 31.2002C13.4302 31.4645 13.5008 31.6947 13.592 31.8906V32H11.9035C11.826 31.8223 11.7645 31.5967 11.7189 31.3232C11.6779 31.0452 11.6574 30.7764 11.6574 30.5166ZM11.8967 27.502L11.9104 28.5205H10.7277C10.4224 28.5205 10.1535 28.5501 9.92109 28.6094C9.68867 28.6641 9.49499 28.7461 9.34004 28.8555C9.18509 28.9648 9.06888 29.097 8.99141 29.252C8.91393 29.4069 8.8752 29.5824 8.8752 29.7783C8.8752 29.9743 8.92077 30.1543 9.01191 30.3184C9.10306 30.4779 9.23522 30.6032 9.4084 30.6943C9.58613 30.7855 9.80033 30.8311 10.051 30.8311C10.3882 30.8311 10.6822 30.7627 10.9328 30.626C11.188 30.4847 11.3885 30.3138 11.5344 30.1133C11.6802 29.9082 11.7577 29.7145 11.7668 29.5322L12.3 30.2637C12.2453 30.4505 12.1519 30.651 12.0197 30.8652C11.8876 31.0794 11.7144 31.2845 11.5002 31.4805C11.2906 31.6719 11.0376 31.8291 10.7414 31.9521C10.4497 32.0752 10.1125 32.1367 9.72969 32.1367C9.24661 32.1367 8.81595 32.041 8.4377 31.8496C8.05944 31.6536 7.76322 31.3916 7.54902 31.0635C7.33483 30.7308 7.22773 30.3548 7.22773 29.9355C7.22773 29.5436 7.30065 29.1973 7.44648 28.8965C7.59688 28.5911 7.81563 28.3359 8.10273 28.1309C8.3944 27.9258 8.74987 27.7708 9.16914 27.666C9.58841 27.5566 10.0669 27.502 10.6047 27.502H11.8967ZM20.3973 24.6035V25.916H16.7469V24.6035H20.3973ZM17.1365 24.6035V32H15.4891V24.6035H17.1365ZM21.6893 24.6035V32H20.035V24.6035H21.6893ZM25.4867 26.0254V34.8438H23.8393V24.6035H25.3568L25.4867 26.0254ZM30.3061 28.2334V28.377C30.3061 28.9147 30.2423 29.4137 30.1146 29.874C29.9916 30.3298 29.807 30.7285 29.5609 31.0703C29.3194 31.4076 29.0209 31.6696 28.6654 31.8564C28.31 32.0433 27.8998 32.1367 27.435 32.1367C26.9747 32.1367 26.5714 32.0524 26.225 31.8838C25.8832 31.7106 25.5938 31.4668 25.3568 31.1523C25.1199 30.8379 24.9285 30.4688 24.7826 30.0449C24.6413 29.6165 24.5411 29.1471 24.4818 28.6367V28.083C24.5411 27.5407 24.6413 27.0485 24.7826 26.6064C24.9285 26.1644 25.1199 25.7839 25.3568 25.4648C25.5938 25.1458 25.8832 24.8997 26.225 24.7266C26.5668 24.5534 26.9656 24.4668 27.4213 24.4668C27.8861 24.4668 28.2986 24.5579 28.6586 24.7402C29.0186 24.918 29.3217 25.1732 29.5678 25.5059C29.8139 25.834 29.9984 26.2305 30.1215 26.6953C30.2445 27.1556 30.3061 27.6683 30.3061 28.2334ZM28.6586 28.377V28.2334C28.6586 27.8916 28.6267 27.5749 28.5629 27.2832C28.4991 26.987 28.3988 26.7272 28.2621 26.5039C28.1254 26.2806 27.9499 26.1074 27.7357 25.9844C27.5261 25.8568 27.2732 25.793 26.977 25.793C26.6853 25.793 26.4346 25.8431 26.225 25.9434C26.0154 26.0391 25.8399 26.1735 25.6986 26.3467C25.5574 26.5199 25.448 26.7227 25.3705 26.9551C25.293 27.1829 25.2383 27.4313 25.2064 27.7002V29.0264C25.2611 29.3545 25.3546 29.6553 25.4867 29.9287C25.6189 30.2021 25.8057 30.4209 26.0473 30.585C26.2934 30.7445 26.6078 30.8242 26.9906 30.8242C27.2868 30.8242 27.5398 30.7604 27.7494 30.6328C27.959 30.5052 28.1299 30.3298 28.2621 30.1064C28.3988 29.8786 28.4991 29.6165 28.5629 29.3203C28.6267 29.0241 28.6586 28.7096 28.6586 28.377ZM32.1758 31.1797C32.1758 30.9245 32.2624 30.7103 32.4355 30.5371C32.6087 30.3594 32.8434 30.2705 33.1396 30.2705C33.4404 30.2705 33.6751 30.3594 33.8438 30.5371C34.0169 30.7103 34.1035 30.9245 34.1035 31.1797C34.1035 31.4349 34.0169 31.6491 33.8438 31.8223C33.6751 31.9954 33.4404 32.082 33.1396 32.082C32.8434 32.082 32.6087 31.9954 32.4355 31.8223C32.2624 31.6491 32.1758 31.4349 32.1758 31.1797ZM43.6057 27.0918V28.4043H39.9895V27.0918H43.6057ZM53.7367 22.0127V32H52.0893V23.9678L49.6488 24.7949V23.4346L53.5385 22.0127H53.7367ZM62.0938 22.0127V32H60.4463V23.9678L58.0059 24.7949V23.4346L61.8955 22.0127H62.0938ZM74.1047 30.5166V26.9893C74.1047 26.7249 74.0568 26.4971 73.9611 26.3057C73.8654 26.1143 73.7196 25.9661 73.5236 25.8613C73.3322 25.7565 73.0907 25.7041 72.799 25.7041C72.5301 25.7041 72.2977 25.7497 72.1018 25.8408C71.9058 25.932 71.7531 26.055 71.6438 26.21C71.5344 26.3649 71.4797 26.5404 71.4797 26.7363H69.8391C69.8391 26.4447 69.9097 26.1621 70.051 25.8887C70.1923 25.6152 70.3973 25.3714 70.6662 25.1572C70.9351 24.943 71.2564 24.7744 71.6301 24.6514C72.0038 24.5283 72.423 24.4668 72.8879 24.4668C73.4439 24.4668 73.9361 24.5602 74.3645 24.7471C74.7974 24.9339 75.1369 25.2165 75.383 25.5947C75.6337 25.9684 75.759 26.4378 75.759 27.0029V30.291C75.759 30.6283 75.7818 30.9313 75.8273 31.2002C75.8775 31.4645 75.9481 31.6947 76.0393 31.8906V32H74.3508C74.2733 31.8223 74.2118 31.5967 74.1662 31.3232C74.1252 31.0452 74.1047 30.7764 74.1047 30.5166ZM74.3439 27.502L74.3576 28.5205H73.175C72.8697 28.5205 72.6008 28.5501 72.3684 28.6094C72.1359 28.6641 71.9423 28.7461 71.7873 28.8555C71.6324 28.9648 71.5161 29.097 71.4387 29.252C71.3612 29.4069 71.3225 29.5824 71.3225 29.7783C71.3225 29.9743 71.368 30.1543 71.4592 30.3184C71.5503 30.4779 71.6825 30.6032 71.8557 30.6943C72.0334 30.7855 72.2476 30.8311 72.4982 30.8311C72.8355 30.8311 73.1294 30.7627 73.3801 30.626C73.6353 30.4847 73.8358 30.3138 73.9816 30.1133C74.1275 29.9082 74.205 29.7145 74.2141 29.5322L74.7473 30.2637C74.6926 30.4505 74.5992 30.651 74.467 30.8652C74.3348 31.0794 74.1617 31.2845 73.9475 31.4805C73.7378 31.6719 73.4849 31.8291 73.1887 31.9521C72.897 32.0752 72.5598 32.1367 72.177 32.1367C71.6939 32.1367 71.2632 32.041 70.885 31.8496C70.5067 31.6536 70.2105 31.3916 69.9963 31.0635C69.7821 30.7308 69.675 30.3548 69.675 29.9355C69.675 29.5436 69.7479 29.1973 69.8938 28.8965C70.0441 28.5911 70.2629 28.3359 70.55 28.1309C70.8417 27.9258 71.1971 27.7708 71.6164 27.666C72.0357 27.5566 72.5142 27.502 73.052 27.502H74.3439ZM82.8445 24.6035V25.916H79.1941V24.6035H82.8445ZM79.5838 24.6035V32H77.9363V24.6035H79.5838ZM84.1365 24.6035V32H82.4822V24.6035H84.1365ZM87.934 26.0254V34.8438H86.2865V24.6035H87.8041L87.934 26.0254ZM92.7533 28.2334V28.377C92.7533 28.9147 92.6895 29.4137 92.5619 29.874C92.4389 30.3298 92.2543 30.7285 92.0082 31.0703C91.7667 31.4076 91.4682 31.6696 91.1127 31.8564C90.7572 32.0433 90.3471 32.1367 89.8822 32.1367C89.4219 32.1367 89.0186 32.0524 88.6723 31.8838C88.3305 31.7106 88.0411 31.4668 87.8041 31.1523C87.5671 30.8379 87.3757 30.4688 87.2299 30.0449C87.0886 29.6165 86.9883 29.1471 86.9291 28.6367V28.083C86.9883 27.5407 87.0886 27.0485 87.2299 26.6064C87.3757 26.1644 87.5671 25.7839 87.8041 25.4648C88.0411 25.1458 88.3305 24.8997 88.6723 24.7266C89.0141 24.5534 89.4128 24.4668 89.8686 24.4668C90.3334 24.4668 90.7458 24.5579 91.1059 24.7402C91.4659 24.918 91.7689 25.1732 92.015 25.5059C92.2611 25.834 92.4457 26.2305 92.5687 26.6953C92.6918 27.1556 92.7533 27.6683 92.7533 28.2334ZM91.1059 28.377V28.2334C91.1059 27.8916 91.074 27.5749 91.0102 27.2832C90.9464 26.987 90.8461 26.7272 90.7094 26.5039C90.5727 26.2806 90.3972 26.1074 90.183 25.9844C89.9734 25.8568 89.7204 25.793 89.4242 25.793C89.1326 25.793 88.8819 25.8431 88.6723 25.9434C88.4626 26.0391 88.2872 26.1735 88.1459 26.3467C88.0046 26.5199 87.8952 26.7227 87.8178 26.9551C87.7403 27.1829 87.6856 27.4313 87.6537 27.7002V29.0264C87.7084 29.3545 87.8018 29.6553 87.934 29.9287C88.0661 30.2021 88.253 30.4209 88.4945 30.585C88.7406 30.7445 89.0551 30.8242 89.4379 30.8242C89.7341 30.8242 89.987 30.7604 90.1967 30.6328C90.4063 30.5052 90.5772 30.3298 90.7094 30.1064C90.8461 29.8786 90.9464 29.6165 91.0102 29.3203C91.074 29.0241 91.1059 28.7096 91.1059 28.377ZM94.623 31.1797C94.623 30.9245 94.7096 30.7103 94.8828 30.5371C95.056 30.3594 95.2907 30.2705 95.5869 30.2705C95.8877 30.2705 96.1224 30.3594 96.291 30.5371C96.4642 30.7103 96.5508 30.9245 96.5508 31.1797C96.5508 31.4349 96.4642 31.6491 96.291 31.8223C96.1224 31.9954 95.8877 32.082 95.5869 32.082C95.2907 32.082 95.056 31.9954 94.8828 31.8223C94.7096 31.6491 94.623 31.4349 94.623 31.1797Z" fill="black"/>
<rect width="120" height="1.66667" transform="translate(122 46.3334)" fill="#2C72BC"/>
<path d="M135.559 22.0127V32H133.912V23.9678L131.471 24.7949V23.4346L135.361 22.0127H135.559ZM146.09 30.6875V32H139.418V30.8721L142.659 27.3379C143.014 26.9368 143.294 26.5905 143.499 26.2988C143.704 26.0072 143.848 25.7451 143.93 25.5127C144.017 25.2757 144.06 25.0456 144.06 24.8223C144.06 24.5078 144.001 24.2321 143.882 23.9951C143.768 23.7536 143.6 23.5645 143.376 23.4277C143.153 23.2865 142.882 23.2158 142.563 23.2158C142.194 23.2158 141.884 23.2956 141.633 23.4551C141.383 23.6146 141.193 23.8356 141.066 24.1182C140.938 24.3962 140.874 24.7152 140.874 25.0752H139.227C139.227 24.4964 139.359 23.9678 139.623 23.4893C139.888 23.0062 140.271 22.6234 140.772 22.3408C141.273 22.0537 141.877 21.9102 142.583 21.9102C143.249 21.9102 143.814 22.0218 144.279 22.2451C144.744 22.4684 145.097 22.7852 145.338 23.1953C145.584 23.6055 145.707 24.0908 145.707 24.6514C145.707 24.9613 145.657 25.2689 145.557 25.5742C145.457 25.8796 145.313 26.1849 145.126 26.4902C144.944 26.791 144.728 27.0941 144.477 27.3994C144.226 27.7002 143.951 28.0055 143.65 28.3154L141.496 30.6875H146.09ZM155.927 30.5166V26.9893C155.927 26.7249 155.879 26.4971 155.784 26.3057C155.688 26.1143 155.542 25.9661 155.346 25.8613C155.155 25.7565 154.913 25.7041 154.622 25.7041C154.353 25.7041 154.12 25.7497 153.924 25.8408C153.728 25.932 153.576 26.055 153.466 26.21C153.357 26.3649 153.302 26.5404 153.302 26.7363H151.662C151.662 26.4447 151.732 26.1621 151.874 25.8887C152.015 25.6152 152.22 25.3714 152.489 25.1572C152.758 24.943 153.079 24.7744 153.453 24.6514C153.826 24.5283 154.246 24.4668 154.711 24.4668C155.267 24.4668 155.759 24.5602 156.187 24.7471C156.62 24.9339 156.96 25.2165 157.206 25.5947C157.456 25.9684 157.582 26.4378 157.582 27.0029V30.291C157.582 30.6283 157.604 30.9313 157.65 31.2002C157.7 31.4645 157.771 31.6947 157.862 31.8906V32H156.173C156.096 31.8223 156.034 31.5967 155.989 31.3232C155.948 31.0452 155.927 30.7764 155.927 30.5166ZM156.167 27.502L156.18 28.5205H154.998C154.692 28.5205 154.423 28.5501 154.191 28.6094C153.959 28.6641 153.765 28.7461 153.61 28.8555C153.455 28.9648 153.339 29.097 153.261 29.252C153.184 29.4069 153.145 29.5824 153.145 29.7783C153.145 29.9743 153.191 30.1543 153.282 30.3184C153.373 30.4779 153.505 30.6032 153.678 30.6943C153.856 30.7855 154.07 30.8311 154.321 30.8311C154.658 30.8311 154.952 30.7627 155.203 30.626C155.458 30.4847 155.658 30.3138 155.804 30.1133C155.95 29.9082 156.028 29.7145 156.037 29.5322L156.57 30.2637C156.515 30.4505 156.422 30.651 156.29 30.8652C156.157 31.0794 155.984 31.2845 155.77 31.4805C155.56 31.6719 155.308 31.8291 155.011 31.9521C154.72 32.0752 154.382 32.1367 154 32.1367C153.517 32.1367 153.086 32.041 152.708 31.8496C152.329 31.6536 152.033 31.3916 151.819 31.0635C151.605 30.7308 151.498 30.3548 151.498 29.9355C151.498 29.5436 151.571 29.1973 151.716 28.8965C151.867 28.5911 152.086 28.3359 152.373 28.1309C152.664 27.9258 153.02 27.7708 153.439 27.666C153.858 27.5566 154.337 27.502 154.875 27.502H156.167ZM164.667 24.6035V25.916H161.017V24.6035H164.667ZM161.406 24.6035V32H159.759V24.6035H161.406ZM165.959 24.6035V32H164.305V24.6035H165.959ZM169.757 26.0254V34.8438H168.109V24.6035H169.627L169.757 26.0254ZM174.576 28.2334V28.377C174.576 28.9147 174.512 29.4137 174.385 29.874C174.262 30.3298 174.077 30.7285 173.831 31.0703C173.589 31.4076 173.291 31.6696 172.935 31.8564C172.58 32.0433 172.17 32.1367 171.705 32.1367C171.245 32.1367 170.841 32.0524 170.495 31.8838C170.153 31.7106 169.864 31.4668 169.627 31.1523C169.39 30.8379 169.198 30.4688 169.053 30.0449C168.911 29.6165 168.811 29.1471 168.752 28.6367V28.083C168.811 27.5407 168.911 27.0485 169.053 26.6064C169.198 26.1644 169.39 25.7839 169.627 25.4648C169.864 25.1458 170.153 24.8997 170.495 24.7266C170.837 24.5534 171.235 24.4668 171.691 24.4668C172.156 24.4668 172.568 24.5579 172.929 24.7402C173.289 24.918 173.592 25.1732 173.838 25.5059C174.084 25.834 174.268 26.2305 174.391 26.6953C174.514 27.1556 174.576 27.6683 174.576 28.2334ZM172.929 28.377V28.2334C172.929 27.8916 172.897 27.5749 172.833 27.2832C172.769 26.987 172.669 26.7272 172.532 26.5039C172.395 26.2806 172.22 26.1074 172.006 25.9844C171.796 25.8568 171.543 25.793 171.247 25.793C170.955 25.793 170.705 25.8431 170.495 25.9434C170.285 26.0391 170.11 26.1735 169.969 26.3467C169.827 26.5199 169.718 26.7227 169.64 26.9551C169.563 27.1829 169.508 27.4313 169.476 27.7002V29.0264C169.531 29.3545 169.624 29.6553 169.757 29.9287C169.889 30.2021 170.076 30.4209 170.317 30.585C170.563 30.7445 170.878 30.8242 171.261 30.8242C171.557 30.8242 171.81 30.7604 172.019 30.6328C172.229 30.5052 172.4 30.3298 172.532 30.1064C172.669 29.8786 172.769 29.6165 172.833 29.3203C172.897 29.0241 172.929 28.7096 172.929 28.377ZM179.693 27.0918V28.4043H176.077V27.0918H179.693ZM189.824 22.0127V32H188.176V23.9678L185.736 24.7949V23.4346L189.626 22.0127H189.824ZM195.009 30.7012H195.146C195.775 30.7012 196.299 30.6191 196.718 30.4551C197.142 30.2865 197.479 30.054 197.73 29.7578C197.98 29.4616 198.16 29.113 198.27 28.7119C198.379 28.3109 198.434 27.8757 198.434 27.4062V25.6904C198.434 25.2848 198.39 24.9294 198.304 24.624C198.222 24.3141 198.103 24.0566 197.948 23.8516C197.798 23.6419 197.623 23.4847 197.422 23.3799C197.226 23.2751 197.014 23.2227 196.786 23.2227C196.536 23.2227 196.31 23.2796 196.11 23.3936C195.914 23.5029 195.747 23.6556 195.611 23.8516C195.478 24.043 195.376 24.2686 195.303 24.5283C195.235 24.7835 195.2 25.057 195.2 25.3486C195.2 25.6221 195.232 25.8864 195.296 26.1416C195.364 26.3923 195.465 26.6156 195.597 26.8115C195.729 27.0075 195.895 27.1624 196.096 27.2764C196.296 27.3903 196.531 27.4473 196.8 27.4473C197.055 27.4473 197.29 27.3994 197.504 27.3037C197.718 27.2035 197.905 27.069 198.065 26.9004C198.224 26.7318 198.349 26.5426 198.441 26.333C198.532 26.1234 198.582 25.9092 198.591 25.6904L199.22 25.8818C199.22 26.2282 199.147 26.57 199.001 26.9072C198.86 27.2399 198.662 27.5452 198.406 27.8232C198.156 28.0967 197.862 28.3154 197.525 28.4795C197.192 28.6436 196.83 28.7256 196.438 28.7256C195.964 28.7256 195.544 28.6367 195.18 28.459C194.82 28.2767 194.519 28.0306 194.278 27.7207C194.041 27.4108 193.863 27.0553 193.744 26.6543C193.626 26.2533 193.567 25.8317 193.567 25.3896C193.567 24.9111 193.64 24.4622 193.785 24.043C193.931 23.6237 194.143 23.2546 194.421 22.9355C194.699 22.612 195.036 22.3613 195.433 22.1836C195.834 22.0013 196.287 21.9102 196.793 21.9102C197.331 21.9102 197.803 22.015 198.208 22.2246C198.614 22.4342 198.956 22.7236 199.234 23.0928C199.512 23.4619 199.721 23.8903 199.862 24.3779C200.004 24.8656 200.074 25.3896 200.074 25.9502V26.5312C200.074 27.1191 200.022 27.6865 199.917 28.2334C199.812 28.7757 199.641 29.2793 199.404 29.7441C199.172 30.2044 198.864 30.61 198.482 30.9609C198.103 31.3073 197.639 31.5785 197.087 31.7744C196.54 31.9658 195.898 32.0615 195.159 32.0615H195.009V30.7012ZM210.192 30.5166V26.9893C210.192 26.7249 210.144 26.4971 210.048 26.3057C209.953 26.1143 209.807 25.9661 209.611 25.8613C209.419 25.7565 209.178 25.7041 208.886 25.7041C208.617 25.7041 208.385 25.7497 208.189 25.8408C207.993 25.932 207.84 26.055 207.731 26.21C207.621 26.3649 207.567 26.5404 207.567 26.7363H205.926C205.926 26.4447 205.997 26.1621 206.138 25.8887C206.279 25.6152 206.484 25.3714 206.753 25.1572C207.022 24.943 207.343 24.7744 207.717 24.6514C208.091 24.5283 208.51 24.4668 208.975 24.4668C209.531 24.4668 210.023 24.5602 210.452 24.7471C210.885 24.9339 211.224 25.2165 211.47 25.5947C211.721 25.9684 211.846 26.4378 211.846 27.0029V30.291C211.846 30.6283 211.869 30.9313 211.914 31.2002C211.965 31.4645 212.035 31.6947 212.126 31.8906V32H210.438C210.36 31.8223 210.299 31.5967 210.253 31.3232C210.212 31.0452 210.192 30.7764 210.192 30.5166ZM210.431 27.502L210.445 28.5205H209.262C208.957 28.5205 208.688 28.5501 208.455 28.6094C208.223 28.6641 208.029 28.7461 207.874 28.8555C207.719 28.9648 207.603 29.097 207.526 29.252C207.448 29.4069 207.41 29.5824 207.41 29.7783C207.41 29.9743 207.455 30.1543 207.546 30.3184C207.637 30.4779 207.77 30.6032 207.943 30.6943C208.121 30.7855 208.335 30.8311 208.585 30.8311C208.923 30.8311 209.217 30.7627 209.467 30.626C209.722 30.4847 209.923 30.3138 210.069 30.1133C210.215 29.9082 210.292 29.7145 210.301 29.5322L210.834 30.2637C210.78 30.4505 210.686 30.651 210.554 30.8652C210.422 31.0794 210.249 31.2845 210.035 31.4805C209.825 31.6719 209.572 31.8291 209.276 31.9521C208.984 32.0752 208.647 32.1367 208.264 32.1367C207.781 32.1367 207.35 32.041 206.972 31.8496C206.594 31.6536 206.298 31.3916 206.083 31.0635C205.869 30.7308 205.762 30.3548 205.762 29.9355C205.762 29.5436 205.835 29.1973 205.981 28.8965C206.131 28.5911 206.35 28.3359 206.637 28.1309C206.929 27.9258 207.284 27.7708 207.704 27.666C208.123 27.5566 208.601 27.502 209.139 27.502H210.431ZM218.932 24.6035V25.916H215.281V24.6035H218.932ZM215.671 24.6035V32H214.023V24.6035H215.671ZM220.224 24.6035V32H218.569V24.6035H220.224ZM224.021 26.0254V34.8438H222.374V24.6035H223.891L224.021 26.0254ZM228.84 28.2334V28.377C228.84 28.9147 228.777 29.4137 228.649 29.874C228.526 30.3298 228.341 30.7285 228.095 31.0703C227.854 31.4076 227.555 31.6696 227.2 31.8564C226.844 32.0433 226.434 32.1367 225.969 32.1367C225.509 32.1367 225.106 32.0524 224.759 31.8838C224.418 31.7106 224.128 31.4668 223.891 31.1523C223.654 30.8379 223.463 30.4688 223.317 30.0449C223.176 29.6165 223.075 29.1471 223.016 28.6367V28.083C223.075 27.5407 223.176 27.0485 223.317 26.6064C223.463 26.1644 223.654 25.7839 223.891 25.4648C224.128 25.1458 224.418 24.8997 224.759 24.7266C225.101 24.5534 225.5 24.4668 225.956 24.4668C226.421 24.4668 226.833 24.5579 227.193 24.7402C227.553 24.918 227.856 25.1732 228.102 25.5059C228.348 25.834 228.533 26.2305 228.656 26.6953C228.779 27.1556 228.84 27.6683 228.84 28.2334ZM227.193 28.377V28.2334C227.193 27.8916 227.161 27.5749 227.097 27.2832C227.033 26.987 226.933 26.7272 226.796 26.5039C226.66 26.2806 226.484 26.1074 226.27 25.9844C226.06 25.8568 225.808 25.793 225.511 25.793C225.22 25.793 224.969 25.8431 224.759 25.9434C224.55 26.0391 224.374 26.1735 224.233 26.3467C224.092 26.5199 223.982 26.7227 223.905 26.9551C223.827 27.1829 223.773 27.4313 223.741 27.7002V29.0264C223.796 29.3545 223.889 29.6553 224.021 29.9287C224.153 30.2021 224.34 30.4209 224.582 30.585C224.828 30.7445 225.142 30.8242 225.525 30.8242C225.821 30.8242 226.074 30.7604 226.284 30.6328C226.493 30.5052 226.664 30.3298 226.796 30.1064C226.933 29.8786 227.033 29.6165 227.097 29.3203C227.161 29.0241 227.193 28.7096 227.193 28.377ZM230.71 31.1797C230.71 30.9245 230.797 30.7103 230.97 30.5371C231.143 30.3594 231.378 30.2705 231.674 30.2705C231.975 30.2705 232.21 30.3594 232.378 30.5371C232.551 30.7103 232.638 30.9245 232.638 31.1797C232.638 31.4349 232.551 31.6491 232.378 31.8223C232.21 31.9954 231.975 32.082 231.674 32.082C231.378 32.082 231.143 31.9954 230.97 31.8223C230.797 31.6491 230.71 31.4349 230.71 31.1797Z" fill="#262323"/>
<path d="M269.442 30.6875V32H262.77V30.8721L266.01 27.3379C266.366 26.9368 266.646 26.5905 266.851 26.2988C267.056 26.0072 267.2 25.7451 267.282 25.5127C267.368 25.2757 267.412 25.0456 267.412 24.8223C267.412 24.5078 267.352 24.2321 267.234 23.9951C267.12 23.7536 266.951 23.5645 266.728 23.4277C266.505 23.2865 266.233 23.2158 265.914 23.2158C265.545 23.2158 265.235 23.2956 264.985 23.4551C264.734 23.6146 264.545 23.8356 264.417 24.1182C264.29 24.3962 264.226 24.7152 264.226 25.0752H262.579C262.579 24.4964 262.711 23.9678 262.975 23.4893C263.239 23.0062 263.622 22.6234 264.123 22.3408C264.625 22.0537 265.229 21.9102 265.935 21.9102C266.6 21.9102 267.165 22.0218 267.63 22.2451C268.095 22.4684 268.448 22.7852 268.69 23.1953C268.936 23.6055 269.059 24.0908 269.059 24.6514C269.059 24.9613 269.009 25.2689 268.909 25.5742C268.808 25.8796 268.665 26.1849 268.478 26.4902C268.296 26.791 268.079 27.0941 267.829 27.3994C267.578 27.7002 267.302 28.0055 267.001 28.3154L264.848 30.6875H269.442ZM277.614 26.1895V27.8164C277.614 28.5957 277.537 29.2611 277.382 29.8125C277.231 30.3594 277.013 30.8037 276.726 31.1455C276.438 31.4873 276.094 31.738 275.693 31.8975C275.297 32.057 274.853 32.1367 274.36 32.1367C273.968 32.1367 273.604 32.0866 273.267 31.9863C272.934 31.8861 272.633 31.7288 272.364 31.5146C272.095 31.3005 271.865 31.0247 271.674 30.6875C271.487 30.3457 271.341 29.9378 271.236 29.4639C271.136 28.9899 271.086 28.4408 271.086 27.8164V26.1895C271.086 25.4056 271.163 24.7448 271.318 24.207C271.473 23.6647 271.694 23.2249 271.981 22.8877C272.269 22.5459 272.61 22.2975 273.007 22.1426C273.408 21.9876 273.854 21.9102 274.347 21.9102C274.743 21.9102 275.108 21.9603 275.44 22.0605C275.778 22.1562 276.078 22.3089 276.343 22.5186C276.612 22.7282 276.84 23.0016 277.026 23.3389C277.218 23.6715 277.364 24.0749 277.464 24.5488C277.564 25.0182 277.614 25.5651 277.614 26.1895ZM275.967 28.0488V25.9434C275.967 25.5469 275.944 25.1982 275.898 24.8975C275.853 24.5921 275.785 24.3346 275.693 24.125C275.607 23.9108 275.497 23.7376 275.365 23.6055C275.233 23.4688 275.083 23.3708 274.914 23.3115C274.745 23.2477 274.556 23.2158 274.347 23.2158C274.091 23.2158 273.864 23.266 273.663 23.3662C273.463 23.4619 273.294 23.6169 273.157 23.8311C273.021 24.0452 272.916 24.3278 272.843 24.6787C272.774 25.0251 272.74 25.4466 272.74 25.9434V28.0488C272.74 28.4499 272.763 28.8031 272.809 29.1084C272.854 29.4137 272.923 29.6758 273.014 29.8945C273.105 30.1087 273.214 30.2865 273.342 30.4277C273.474 30.5645 273.624 30.6647 273.793 30.7285C273.966 30.7923 274.155 30.8242 274.36 30.8242C274.62 30.8242 274.85 30.7741 275.051 30.6738C275.251 30.5736 275.42 30.4141 275.557 30.1953C275.693 29.972 275.796 29.6826 275.864 29.3271C275.933 28.9717 275.967 28.5456 275.967 28.0488ZM287.636 30.5166V26.9893C287.636 26.7249 287.588 26.4971 287.492 26.3057C287.397 26.1143 287.251 25.9661 287.055 25.8613C286.863 25.7565 286.622 25.7041 286.33 25.7041C286.061 25.7041 285.829 25.7497 285.633 25.8408C285.437 25.932 285.284 26.055 285.175 26.21C285.066 26.3649 285.011 26.5404 285.011 26.7363H283.37C283.37 26.4447 283.441 26.1621 283.582 25.8887C283.724 25.6152 283.929 25.3714 284.197 25.1572C284.466 24.943 284.788 24.7744 285.161 24.6514C285.535 24.5283 285.954 24.4668 286.419 24.4668C286.975 24.4668 287.467 24.5602 287.896 24.7471C288.329 24.9339 288.668 25.2165 288.914 25.5947C289.165 25.9684 289.29 26.4378 289.29 27.0029V30.291C289.29 30.6283 289.313 30.9313 289.359 31.2002C289.409 31.4645 289.479 31.6947 289.571 31.8906V32H287.882C287.805 31.8223 287.743 31.5967 287.697 31.3232C287.656 31.0452 287.636 30.7764 287.636 30.5166ZM287.875 27.502L287.889 28.5205H286.706C286.401 28.5205 286.132 28.5501 285.9 28.6094C285.667 28.6641 285.474 28.7461 285.319 28.8555C285.164 28.9648 285.047 29.097 284.97 29.252C284.892 29.4069 284.854 29.5824 284.854 29.7783C284.854 29.9743 284.899 30.1543 284.99 30.3184C285.082 30.4779 285.214 30.6032 285.387 30.6943C285.565 30.7855 285.779 30.8311 286.029 30.8311C286.367 30.8311 286.661 30.7627 286.911 30.626C287.167 30.4847 287.367 30.3138 287.513 30.1133C287.659 29.9082 287.736 29.7145 287.745 29.5322L288.279 30.2637C288.224 30.4505 288.13 30.651 287.998 30.8652C287.866 31.0794 287.693 31.2845 287.479 31.4805C287.269 31.6719 287.016 31.8291 286.72 31.9521C286.428 32.0752 286.091 32.1367 285.708 32.1367C285.225 32.1367 284.794 32.041 284.416 31.8496C284.038 31.6536 283.742 31.3916 283.528 31.0635C283.313 30.7308 283.206 30.3548 283.206 29.9355C283.206 29.5436 283.279 29.1973 283.425 28.8965C283.575 28.5911 283.794 28.3359 284.081 28.1309C284.373 27.9258 284.728 27.7708 285.148 27.666C285.567 27.5566 286.045 27.502 286.583 27.502H287.875ZM296.376 24.6035V25.916H292.725V24.6035H296.376ZM293.115 24.6035V32H291.468V24.6035H293.115ZM297.668 24.6035V32H296.013V24.6035H297.668ZM301.465 26.0254V34.8438H299.818V24.6035H301.335L301.465 26.0254ZM306.285 28.2334V28.377C306.285 28.9147 306.221 29.4137 306.093 29.874C305.97 30.3298 305.786 30.7285 305.539 31.0703C305.298 31.4076 304.999 31.6696 304.644 31.8564C304.288 32.0433 303.878 32.1367 303.413 32.1367C302.953 32.1367 302.55 32.0524 302.204 31.8838C301.862 31.7106 301.572 31.4668 301.335 31.1523C301.098 30.8379 300.907 30.4688 300.761 30.0449C300.62 29.6165 300.52 29.1471 300.46 28.6367V28.083C300.52 27.5407 300.62 27.0485 300.761 26.6064C300.907 26.1644 301.098 25.7839 301.335 25.4648C301.572 25.1458 301.862 24.8997 302.204 24.7266C302.545 24.5534 302.944 24.4668 303.4 24.4668C303.865 24.4668 304.277 24.5579 304.637 24.7402C304.997 24.918 305.3 25.1732 305.546 25.5059C305.792 25.834 305.977 26.2305 306.1 26.6953C306.223 27.1556 306.285 27.6683 306.285 28.2334ZM304.637 28.377V28.2334C304.637 27.8916 304.605 27.5749 304.541 27.2832C304.478 26.987 304.377 26.7272 304.241 26.5039C304.104 26.2806 303.928 26.1074 303.714 25.9844C303.505 25.8568 303.252 25.793 302.955 25.793C302.664 25.793 302.413 25.8431 302.204 25.9434C301.994 26.0391 301.818 26.1735 301.677 26.3467C301.536 26.5199 301.426 26.7227 301.349 26.9551C301.272 27.1829 301.217 27.4313 301.185 27.7002V29.0264C301.24 29.3545 301.333 29.6553 301.465 29.9287C301.597 30.2021 301.784 30.4209 302.026 30.585C302.272 30.7445 302.586 30.8242 302.969 30.8242C303.265 30.8242 303.518 30.7604 303.728 30.6328C303.938 30.5052 304.108 30.3298 304.241 30.1064C304.377 29.8786 304.478 29.6165 304.541 29.3203C304.605 29.0241 304.637 28.7096 304.637 28.377ZM308.154 31.1797C308.154 30.9245 308.241 30.7103 308.414 30.5371C308.587 30.3594 308.822 30.2705 309.118 30.2705C309.419 30.2705 309.654 30.3594 309.822 30.5371C309.995 30.7103 310.082 30.9245 310.082 31.1797C310.082 31.4349 309.995 31.6491 309.822 31.8223C309.654 31.9954 309.419 32.082 309.118 32.082C308.822 32.082 308.587 31.9954 308.414 31.8223C308.241 31.6491 308.154 31.4349 308.154 31.1797ZM319.584 27.0918V28.4043H315.968V27.0918H319.584ZM331.889 30.6875V32H325.217V30.8721L328.457 27.3379C328.813 26.9368 329.093 26.5905 329.298 26.2988C329.503 26.0072 329.647 25.7451 329.729 25.5127C329.815 25.2757 329.859 25.0456 329.859 24.8223C329.859 24.5078 329.8 24.2321 329.681 23.9951C329.567 23.7536 329.399 23.5645 329.175 23.4277C328.952 23.2865 328.681 23.2158 328.362 23.2158C327.993 23.2158 327.683 23.2956 327.432 23.4551C327.181 23.6146 326.992 23.8356 326.865 24.1182C326.737 24.3962 326.673 24.7152 326.673 25.0752H325.026C325.026 24.4964 325.158 23.9678 325.422 23.4893C325.687 23.0062 326.069 22.6234 326.571 22.3408C327.072 22.0537 327.676 21.9102 328.382 21.9102C329.048 21.9102 329.613 22.0218 330.078 22.2451C330.542 22.4684 330.896 22.7852 331.137 23.1953C331.383 23.6055 331.506 24.0908 331.506 24.6514C331.506 24.9613 331.456 25.2689 331.356 25.5742C331.256 25.8796 331.112 26.1849 330.925 26.4902C330.743 26.791 330.526 27.0941 330.276 27.3994C330.025 27.7002 329.749 28.0055 329.449 28.3154L327.295 30.6875H331.889ZM340.185 22.0469V22.9492L336.206 32H334.47L338.441 23.3594H333.287V22.0469H340.185ZM350.083 30.5166V26.9893C350.083 26.7249 350.035 26.4971 349.94 26.3057C349.844 26.1143 349.698 25.9661 349.502 25.8613C349.311 25.7565 349.069 25.7041 348.778 25.7041C348.509 25.7041 348.276 25.7497 348.08 25.8408C347.884 25.932 347.732 26.055 347.622 26.21C347.513 26.3649 347.458 26.5404 347.458 26.7363H345.818C345.818 26.4447 345.888 26.1621 346.029 25.8887C346.171 25.6152 346.376 25.3714 346.645 25.1572C346.914 24.943 347.235 24.7744 347.609 24.6514C347.982 24.5283 348.402 24.4668 348.866 24.4668C349.422 24.4668 349.915 24.5602 350.343 24.7471C350.776 24.9339 351.115 25.2165 351.362 25.5947C351.612 25.9684 351.737 26.4378 351.737 27.0029V30.291C351.737 30.6283 351.76 30.9313 351.806 31.2002C351.856 31.4645 351.927 31.6947 352.018 31.8906V32H350.329C350.252 31.8223 350.19 31.5967 350.145 31.3232C350.104 31.0452 350.083 30.7764 350.083 30.5166ZM350.322 27.502L350.336 28.5205H349.154C348.848 28.5205 348.579 28.5501 348.347 28.6094C348.114 28.6641 347.921 28.7461 347.766 28.8555C347.611 28.9648 347.495 29.097 347.417 29.252C347.34 29.4069 347.301 29.5824 347.301 29.7783C347.301 29.9743 347.347 30.1543 347.438 30.3184C347.529 30.4779 347.661 30.6032 347.834 30.6943C348.012 30.7855 348.226 30.8311 348.477 30.8311C348.814 30.8311 349.108 30.7627 349.359 30.626C349.614 30.4847 349.814 30.3138 349.96 30.1133C350.106 29.9082 350.183 29.7145 350.193 29.5322L350.726 30.2637C350.671 30.4505 350.578 30.651 350.446 30.8652C350.313 31.0794 350.14 31.2845 349.926 31.4805C349.716 31.6719 349.463 31.8291 349.167 31.9521C348.876 32.0752 348.538 32.1367 348.155 32.1367C347.672 32.1367 347.242 32.041 346.863 31.8496C346.485 31.6536 346.189 31.3916 345.975 31.0635C345.761 30.7308 345.654 30.3548 345.654 29.9355C345.654 29.5436 345.726 29.1973 345.872 28.8965C346.023 28.5911 346.241 28.3359 346.529 28.1309C346.82 27.9258 347.176 27.7708 347.595 27.666C348.014 27.5566 348.493 27.502 349.03 27.502H350.322ZM358.823 24.6035V25.916H355.173V24.6035H358.823ZM355.562 24.6035V32H353.915V24.6035H355.562ZM360.115 24.6035V32H358.461V24.6035H360.115ZM363.912 26.0254V34.8438H362.265V24.6035H363.783L363.912 26.0254ZM368.732 28.2334V28.377C368.732 28.9147 368.668 29.4137 368.54 29.874C368.417 30.3298 368.233 30.7285 367.987 31.0703C367.745 31.4076 367.447 31.6696 367.091 31.8564C366.736 32.0433 366.326 32.1367 365.861 32.1367C365.4 32.1367 364.997 32.0524 364.651 31.8838C364.309 31.7106 364.02 31.4668 363.783 31.1523C363.546 30.8379 363.354 30.4688 363.208 30.0449C363.067 29.6165 362.967 29.1471 362.908 28.6367V28.083C362.967 27.5407 363.067 27.0485 363.208 26.6064C363.354 26.1644 363.546 25.7839 363.783 25.4648C364.02 25.1458 364.309 24.8997 364.651 24.7266C364.993 24.5534 365.391 24.4668 365.847 24.4668C366.312 24.4668 366.724 24.5579 367.084 24.7402C367.444 24.918 367.747 25.1732 367.994 25.5059C368.24 25.834 368.424 26.2305 368.547 26.6953C368.67 27.1556 368.732 27.6683 368.732 28.2334ZM367.084 28.377V28.2334C367.084 27.8916 367.052 27.5749 366.989 27.2832C366.925 26.987 366.825 26.7272 366.688 26.5039C366.551 26.2806 366.376 26.1074 366.162 25.9844C365.952 25.8568 365.699 25.793 365.403 25.793C365.111 25.793 364.86 25.8431 364.651 25.9434C364.441 26.0391 364.266 26.1735 364.124 26.3467C363.983 26.5199 363.874 26.7227 363.796 26.9551C363.719 27.1829 363.664 27.4313 363.632 27.7002V29.0264C363.687 29.3545 363.78 29.6553 363.912 29.9287C364.045 30.2021 364.232 30.4209 364.473 30.585C364.719 30.7445 365.034 30.8242 365.416 30.8242C365.713 30.8242 365.966 30.7604 366.175 30.6328C366.385 30.5052 366.556 30.3298 366.688 30.1064C366.825 29.8786 366.925 29.6165 366.989 29.3203C367.052 29.0241 367.084 28.7096 367.084 28.377ZM370.602 31.1797C370.602 30.9245 370.688 30.7103 370.861 30.5371C371.035 30.3594 371.269 30.2705 371.565 30.2705C371.866 30.2705 372.101 30.3594 372.27 30.5371C372.443 30.7103 372.529 30.9245 372.529 31.1797C372.529 31.4349 372.443 31.6491 372.27 31.8223C372.101 31.9954 371.866 32.082 371.565 32.082C371.269 32.082 371.035 31.9954 370.861 31.8223C370.688 31.6491 370.602 31.4349 370.602 31.1797Z" fill="black"/>
</g>
<defs>
<clipPath id="clip0_3452_2675">
<rect width="364" height="56" rx="8" fill="white"/>
</clipPath>
</defs>
</svg>
