<svg width="360" height="113" viewBox="0 0 360 113" fill="none" xmlns="http://www.w3.org/2000/svg">
<rect width="360" height="113" rx="20" fill="white"/>
<path d="M25.7295 35.9434V38H18.918V35.9434H25.7295ZM19.7793 25.2031V38H17.1426V25.2031H19.7793ZM24.8418 30.415V32.4189H18.918V30.415H24.8418ZM25.7207 25.2031V27.2686H18.918V25.2031H25.7207ZM31.0123 36.1982C31.3229 36.1982 31.5982 36.1396 31.8385 36.0225C32.0787 35.8994 32.2662 35.7295 32.401 35.5127C32.5416 35.29 32.6148 35.0293 32.6207 34.7305H35.0025C34.9967 35.3984 34.818 35.9932 34.4664 36.5146C34.1148 37.0303 33.6432 37.4375 33.0514 37.7363C32.4596 38.0293 31.7975 38.1758 31.065 38.1758C30.3268 38.1758 29.6822 38.0527 29.1314 37.8066C28.5865 37.5605 28.1324 37.2207 27.7691 36.7871C27.4059 36.3477 27.1334 35.8379 26.9518 35.2578C26.7701 34.6719 26.6793 34.0449 26.6793 33.377V33.1221C26.6793 32.4482 26.7701 31.8213 26.9518 31.2412C27.1334 30.6553 27.4059 30.1455 27.7691 29.7119C28.1324 29.2725 28.5865 28.9297 29.1314 28.6836C29.6764 28.4375 30.315 28.3145 31.0475 28.3145C31.8268 28.3145 32.5094 28.4639 33.0953 28.7627C33.6871 29.0615 34.15 29.4893 34.484 30.0459C34.8238 30.5967 34.9967 31.25 35.0025 32.0059H32.6207C32.6148 31.6895 32.5475 31.4023 32.4186 31.1445C32.2955 30.8867 32.1139 30.6816 31.8736 30.5293C31.6393 30.3711 31.3492 30.292 31.0035 30.292C30.6344 30.292 30.3326 30.3711 30.0982 30.5293C29.8639 30.6816 29.6822 30.8926 29.5533 31.1621C29.4244 31.4258 29.3336 31.7275 29.2809 32.0674C29.234 32.4014 29.2105 32.7529 29.2105 33.1221V33.377C29.2105 33.7461 29.234 34.1006 29.2809 34.4404C29.3277 34.7803 29.4156 35.082 29.5445 35.3457C29.6793 35.6094 29.8639 35.8174 30.0982 35.9697C30.3326 36.1221 30.6373 36.1982 31.0123 36.1982ZM41.4631 28.4902V38H38.923V28.4902H41.4631ZM44.5217 28.4902V30.4502H35.9084V28.4902H44.5217ZM47.7127 31.3115H50.4725C51.3396 31.3115 52.0779 31.4551 52.6873 31.7422C53.3025 32.0234 53.7713 32.416 54.0936 32.9199C54.4217 33.4238 54.5857 34.0068 54.5857 34.6689C54.5857 35.1494 54.492 35.5947 54.3045 36.0049C54.1229 36.4092 53.8563 36.7607 53.5047 37.0596C53.1531 37.3584 52.7225 37.5898 52.2127 37.7539C51.7029 37.918 51.1229 38 50.4725 38H46.1307V28.4902H48.6707V36.0312H50.4725C50.8533 36.0312 51.158 35.9697 51.3865 35.8467C51.6209 35.7178 51.7908 35.5508 51.8963 35.3457C52.0076 35.1406 52.0633 34.918 52.0633 34.6777C52.0633 34.4258 52.0076 34.1973 51.8963 33.9922C51.7908 33.7812 51.6209 33.6113 51.3865 33.4824C51.158 33.3535 50.8533 33.2891 50.4725 33.2891H47.7127V31.3115ZM67.1992 28.4902V30.4766H62.5938V28.4902H67.1992ZM63.3232 28.4902V38H60.792V28.4902H63.3232ZM69.0449 28.4902V38H66.5049V28.4902H69.0449ZM73.6773 30.3184V41.6562H71.1461V28.4902H73.4928L73.6773 30.3184ZM79.6979 33.1396V33.3242C79.6979 34.0156 79.6158 34.6572 79.4518 35.249C79.2936 35.8408 79.0592 36.3564 78.7486 36.7959C78.4381 37.2295 78.0514 37.5693 77.5885 37.8154C77.1314 38.0557 76.6041 38.1758 76.0064 38.1758C75.4264 38.1758 74.9225 38.0586 74.4947 37.8242C74.067 37.5898 73.7066 37.2617 73.4137 36.8398C73.1266 36.4121 72.8951 35.917 72.7193 35.3545C72.5436 34.792 72.4088 34.1885 72.315 33.5439V33.0605C72.4088 32.3691 72.5436 31.7363 72.7193 31.1621C72.8951 30.582 73.1266 30.0811 73.4137 29.6592C73.7066 29.2314 74.0641 28.9004 74.4859 28.666C74.9137 28.4316 75.4146 28.3145 75.9889 28.3145C76.5924 28.3145 77.1227 28.4287 77.5797 28.6572C78.0426 28.8857 78.4293 29.2139 78.7398 29.6416C79.0563 30.0693 79.2936 30.5791 79.4518 31.1709C79.6158 31.7627 79.6979 32.4189 79.6979 33.1396ZM77.1578 33.3242V33.1396C77.1578 32.7354 77.1227 32.3633 77.0523 32.0234C76.9879 31.6777 76.8824 31.376 76.7359 31.1182C76.5953 30.8604 76.4078 30.6611 76.1734 30.5205C75.9449 30.374 75.6666 30.3008 75.3385 30.3008C74.9928 30.3008 74.6969 30.3564 74.4508 30.4678C74.2105 30.5791 74.0143 30.7402 73.8619 30.9512C73.7096 31.1621 73.5953 31.4141 73.5191 31.707C73.443 32 73.3961 32.3311 73.3785 32.7002V33.9219C73.4078 34.3555 73.4898 34.7451 73.6246 35.0908C73.7594 35.4307 73.9674 35.7002 74.2486 35.8994C74.5299 36.0986 74.899 36.1982 75.3561 36.1982C75.69 36.1982 75.9713 36.125 76.1998 35.9785C76.4283 35.8262 76.6129 35.6182 76.7535 35.3545C76.9 35.0908 77.0025 34.7861 77.0611 34.4404C77.1256 34.0947 77.1578 33.7227 77.1578 33.3242ZM81.0168 33.3418V33.1572C81.0168 32.46 81.1164 31.8184 81.3156 31.2324C81.5148 30.6406 81.8049 30.1279 82.1857 29.6943C82.5666 29.2607 83.0354 28.9238 83.592 28.6836C84.1486 28.4375 84.7873 28.3145 85.508 28.3145C86.2287 28.3145 86.8703 28.4375 87.4328 28.6836C87.9953 28.9238 88.467 29.2607 88.8479 29.6943C89.2346 30.1279 89.5275 30.6406 89.7268 31.2324C89.926 31.8184 90.0256 32.46 90.0256 33.1572V33.3418C90.0256 34.0332 89.926 34.6748 89.7268 35.2666C89.5275 35.8525 89.2346 36.3652 88.8479 36.8047C88.467 37.2383 87.9982 37.5752 87.4416 37.8154C86.885 38.0557 86.2463 38.1758 85.5256 38.1758C84.8049 38.1758 84.1633 38.0557 83.6008 37.8154C83.0441 37.5752 82.5725 37.2383 82.1857 36.8047C81.8049 36.3652 81.5148 35.8525 81.3156 35.2666C81.1164 34.6748 81.0168 34.0332 81.0168 33.3418ZM83.548 33.1572V33.3418C83.548 33.7402 83.5832 34.1123 83.6535 34.458C83.7238 34.8037 83.8352 35.1084 83.9875 35.3721C84.1457 35.6299 84.3508 35.832 84.6027 35.9785C84.8547 36.125 85.1623 36.1982 85.5256 36.1982C85.8772 36.1982 86.1789 36.125 86.4309 35.9785C86.6828 35.832 86.885 35.6299 87.0373 35.3721C87.1897 35.1084 87.301 34.8037 87.3713 34.458C87.4475 34.1123 87.4855 33.7402 87.4855 33.3418V33.1572C87.4855 32.7705 87.4475 32.4072 87.3713 32.0674C87.301 31.7217 87.1867 31.417 87.0285 31.1533C86.8762 30.8838 86.674 30.6729 86.4221 30.5205C86.1701 30.3682 85.8654 30.292 85.508 30.292C85.1506 30.292 84.8459 30.3682 84.5939 30.5205C84.3479 30.6729 84.1457 30.8838 83.9875 31.1533C83.8352 31.417 83.7238 31.7217 83.6535 32.0674C83.5832 32.4072 83.548 32.7705 83.548 33.1572ZM95.66 36.1982C95.9705 36.1982 96.2459 36.1396 96.4861 36.0225C96.7264 35.8994 96.9139 35.7295 97.0486 35.5127C97.1893 35.29 97.2625 35.0293 97.2684 34.7305H99.6502C99.6443 35.3984 99.4656 35.9932 99.1141 36.5146C98.7625 37.0303 98.2908 37.4375 97.699 37.7363C97.1072 38.0293 96.4451 38.1758 95.7127 38.1758C94.9744 38.1758 94.3299 38.0527 93.7791 37.8066C93.2342 37.5605 92.7801 37.2207 92.4168 36.7871C92.0535 36.3477 91.7811 35.8379 91.5994 35.2578C91.4178 34.6719 91.327 34.0449 91.327 33.377V33.1221C91.327 32.4482 91.4178 31.8213 91.5994 31.2412C91.7811 30.6553 92.0535 30.1455 92.4168 29.7119C92.7801 29.2725 93.2342 28.9297 93.7791 28.6836C94.324 28.4375 94.9627 28.3145 95.6951 28.3145C96.4744 28.3145 97.157 28.4639 97.743 28.7627C98.3348 29.0615 98.7977 29.4893 99.1316 30.0459C99.4715 30.5967 99.6443 31.25 99.6502 32.0059H97.2684C97.2625 31.6895 97.1951 31.4023 97.0662 31.1445C96.9432 30.8867 96.7615 30.6816 96.5213 30.5293C96.2869 30.3711 95.9969 30.292 95.6512 30.292C95.282 30.292 94.9803 30.3711 94.7459 30.5293C94.5115 30.6816 94.3299 30.8926 94.201 31.1621C94.0721 31.4258 93.9812 31.7275 93.9285 32.0674C93.8816 32.4014 93.8582 32.7529 93.8582 33.1221V33.377C93.8582 33.7461 93.8816 34.1006 93.9285 34.4404C93.9754 34.7803 94.0633 35.082 94.1922 35.3457C94.327 35.6094 94.5115 35.8174 94.7459 35.9697C94.9803 36.1221 95.285 36.1982 95.66 36.1982ZM103.799 30.3184V41.6562H101.268V28.4902H103.615L103.799 30.3184ZM109.82 33.1396V33.3242C109.82 34.0156 109.738 34.6572 109.574 35.249C109.415 35.8408 109.181 36.3564 108.871 36.7959C108.56 37.2295 108.173 37.5693 107.71 37.8154C107.253 38.0557 106.726 38.1758 106.128 38.1758C105.548 38.1758 105.044 38.0586 104.617 37.8242C104.189 37.5898 103.829 37.2617 103.536 36.8398C103.248 36.4121 103.017 35.917 102.841 35.3545C102.665 34.792 102.531 34.1885 102.437 33.5439V33.0605C102.531 32.3691 102.665 31.7363 102.841 31.1621C103.017 30.582 103.248 30.0811 103.536 29.6592C103.829 29.2314 104.186 28.9004 104.608 28.666C105.036 28.4316 105.537 28.3145 106.111 28.3145C106.714 28.3145 107.245 28.4287 107.702 28.6572C108.164 28.8857 108.551 29.2139 108.862 29.6416C109.178 30.0693 109.415 30.5791 109.574 31.1709C109.738 31.7627 109.82 32.4189 109.82 33.1396ZM107.28 33.3242V33.1396C107.28 32.7354 107.245 32.3633 107.174 32.0234C107.11 31.6777 107.004 31.376 106.858 31.1182C106.717 30.8604 106.53 30.6611 106.295 30.5205C106.067 30.374 105.788 30.3008 105.46 30.3008C105.115 30.3008 104.819 30.3564 104.573 30.4678C104.332 30.5791 104.136 30.7402 103.984 30.9512C103.831 31.1621 103.717 31.4141 103.641 31.707C103.565 32 103.518 32.3311 103.5 32.7002V33.9219C103.53 34.3555 103.612 34.7451 103.746 35.0908C103.881 35.4307 104.089 35.7002 104.371 35.8994C104.652 36.0986 105.021 36.1982 105.478 36.1982C105.812 36.1982 106.093 36.125 106.322 35.9785C106.55 35.8262 106.735 35.6182 106.875 35.3545C107.022 35.0908 107.124 34.7861 107.183 34.4404C107.247 34.0947 107.28 33.7227 107.28 33.3242ZM111.139 33.3418V33.1572C111.139 32.46 111.238 31.8184 111.438 31.2324C111.637 30.6406 111.927 30.1279 112.308 29.6943C112.688 29.2607 113.157 28.9238 113.714 28.6836C114.271 28.4375 114.909 28.3145 115.63 28.3145C116.351 28.3145 116.992 28.4375 117.555 28.6836C118.117 28.9238 118.589 29.2607 118.97 29.6943C119.356 30.1279 119.649 30.6406 119.849 31.2324C120.048 31.8184 120.147 32.46 120.147 33.1572V33.3418C120.147 34.0332 120.048 34.6748 119.849 35.2666C119.649 35.8525 119.356 36.3652 118.97 36.8047C118.589 37.2383 118.12 37.5752 117.563 37.8154C117.007 38.0557 116.368 38.1758 115.647 38.1758C114.927 38.1758 114.285 38.0557 113.723 37.8154C113.166 37.5752 112.694 37.2383 112.308 36.8047C111.927 36.3652 111.637 35.8525 111.438 35.2666C111.238 34.6748 111.139 34.0332 111.139 33.3418ZM113.67 33.1572V33.3418C113.67 33.7402 113.705 34.1123 113.775 34.458C113.846 34.8037 113.957 35.1084 114.109 35.3721C114.268 35.6299 114.473 35.832 114.725 35.9785C114.977 36.125 115.284 36.1982 115.647 36.1982C115.999 36.1982 116.301 36.125 116.553 35.9785C116.805 35.832 117.007 35.6299 117.159 35.3721C117.312 35.1084 117.423 34.8037 117.493 34.458C117.569 34.1123 117.607 33.7402 117.607 33.3418V33.1572C117.607 32.7705 117.569 32.4072 117.493 32.0674C117.423 31.7217 117.309 31.417 117.15 31.1533C116.998 30.8838 116.796 30.6729 116.544 30.5205C116.292 30.3682 115.987 30.292 115.63 30.292C115.272 30.292 114.968 30.3682 114.716 30.5205C114.47 30.6729 114.268 30.8838 114.109 31.1533C113.957 31.417 113.846 31.7217 113.775 32.0674C113.705 32.4072 113.67 32.7705 113.67 33.1572ZM129.869 28.4902V38H127.329V28.4902H129.869ZM128.673 32.5596V34.5371C128.48 34.6367 128.231 34.7305 127.926 34.8184C127.622 34.9062 127.299 34.9766 126.96 35.0293C126.626 35.0762 126.315 35.0996 126.028 35.0996C125.114 35.0996 124.329 34.9736 123.672 34.7217C123.022 34.4697 122.521 34.0742 122.17 33.5352C121.818 32.9961 121.642 32.3047 121.642 31.4609V28.4814H124.173V31.4609C124.173 31.8887 124.238 32.2256 124.367 32.4717C124.496 32.7119 124.695 32.8818 124.964 32.9814C125.24 33.0752 125.594 33.1221 126.028 33.1221C126.333 33.1221 126.629 33.0986 126.916 33.0518C127.203 33.0049 127.49 32.9404 127.777 32.8584C128.064 32.7764 128.363 32.6768 128.673 32.5596ZM136.347 38.1758C135.609 38.1758 134.946 38.0586 134.361 37.8242C133.775 37.584 133.277 37.2529 132.866 36.8311C132.462 36.4092 132.152 35.9199 131.935 35.3633C131.718 34.8008 131.61 34.2031 131.61 33.5703V33.2188C131.61 32.498 131.712 31.8389 131.917 31.2412C132.122 30.6436 132.415 30.125 132.796 29.6855C133.183 29.2461 133.652 28.9092 134.202 28.6748C134.753 28.4346 135.374 28.3145 136.066 28.3145C136.739 28.3145 137.337 28.4258 137.859 28.6484C138.38 28.8711 138.817 29.1875 139.168 29.5977C139.526 30.0078 139.795 30.5 139.977 31.0742C140.158 31.6426 140.249 32.2754 140.249 32.9727V34.0273H132.691V32.3398H137.762V32.1465C137.762 31.7949 137.697 31.4814 137.569 31.2061C137.446 30.9248 137.258 30.7021 137.006 30.5381C136.754 30.374 136.432 30.292 136.039 30.292C135.705 30.292 135.418 30.3652 135.178 30.5117C134.938 30.6582 134.741 30.8633 134.589 31.127C134.443 31.3906 134.331 31.7012 134.255 32.0586C134.185 32.4102 134.15 32.7969 134.15 33.2188V33.5703C134.15 33.9512 134.202 34.3027 134.308 34.625C134.419 34.9473 134.574 35.2256 134.774 35.46C134.979 35.6943 135.225 35.876 135.512 36.0049C135.805 36.1338 136.136 36.1982 136.505 36.1982C136.962 36.1982 137.387 36.1104 137.779 35.9346C138.178 35.7529 138.521 35.4805 138.808 35.1172L140.038 36.4531C139.839 36.7402 139.567 37.0156 139.221 37.2793C138.881 37.543 138.471 37.7598 137.99 37.9297C137.51 38.0938 136.962 38.1758 136.347 38.1758ZM148.353 32.3311V34.2998H143.519V32.3311H148.353ZM144.363 28.4902V38H141.832V28.4902H144.363ZM150.067 28.4902V38H147.527V28.4902H150.067ZM158.699 32.3311V34.2998H153.865V32.3311H158.699ZM154.708 28.4902V38H152.177V28.4902H154.708ZM160.413 28.4902V38H157.872V28.4902H160.413ZM164.28 31.3115H167.04C167.907 31.3115 168.646 31.4551 169.255 31.7422C169.87 32.0234 170.339 32.416 170.661 32.9199C170.989 33.4238 171.153 34.0068 171.153 34.6689C171.153 35.1494 171.06 35.5947 170.872 36.0049C170.69 36.4092 170.424 36.7607 170.072 37.0596C169.721 37.3584 169.29 37.5898 168.78 37.7539C168.271 37.918 167.69 38 167.04 38H162.698V28.4902H165.238V36.0312H167.04C167.421 36.0312 167.726 35.9697 167.954 35.8467C168.188 35.7178 168.358 35.5508 168.464 35.3457C168.575 35.1406 168.631 34.918 168.631 34.6777C168.631 34.4258 168.575 34.1973 168.464 33.9922C168.358 33.7812 168.188 33.6113 167.954 33.4824C167.726 33.3535 167.421 33.2891 167.04 33.2891H164.28V31.3115ZM175.214 28.4902V38H172.683V28.4902H175.214ZM181.964 38.1758C181.226 38.1758 180.564 38.0586 179.978 37.8242C179.392 37.584 178.894 37.2529 178.484 36.8311C178.08 36.4092 177.769 35.9199 177.552 35.3633C177.336 34.8008 177.227 34.2031 177.227 33.5703V33.2188C177.227 32.498 177.33 31.8389 177.535 31.2412C177.74 30.6436 178.033 30.125 178.414 29.6855C178.8 29.2461 179.269 28.9092 179.82 28.6748C180.371 28.4346 180.992 28.3145 181.683 28.3145C182.357 28.3145 182.955 28.4258 183.476 28.6484C183.998 28.8711 184.434 29.1875 184.786 29.5977C185.143 30.0078 185.413 30.5 185.594 31.0742C185.776 31.6426 185.867 32.2754 185.867 32.9727V34.0273H178.308V32.3398H183.379V32.1465C183.379 31.7949 183.315 31.4814 183.186 31.2061C183.063 30.9248 182.876 30.7021 182.624 30.5381C182.372 30.374 182.049 30.292 181.657 30.292C181.323 30.292 181.036 30.3652 180.796 30.5117C180.555 30.6582 180.359 30.8633 180.207 31.127C180.06 31.3906 179.949 31.7012 179.873 32.0586C179.802 32.4102 179.767 32.7969 179.767 33.2188V33.5703C179.767 33.9512 179.82 34.3027 179.925 34.625C180.037 34.9473 180.192 35.2256 180.391 35.46C180.596 35.6943 180.842 35.876 181.129 36.0049C181.422 36.1338 181.754 36.1982 182.123 36.1982C182.58 36.1982 183.004 36.1104 183.397 35.9346C183.796 35.7529 184.138 35.4805 184.425 35.1172L185.656 36.4531C185.457 36.7402 185.184 37.0156 184.838 37.2793C184.499 37.543 184.088 37.7598 183.608 37.9297C183.128 38.0938 182.58 38.1758 181.964 38.1758ZM196.327 33.4648H194.446V32.3311H195.791C196.107 32.3311 196.359 32.2871 196.547 32.1992C196.74 32.1113 196.878 31.9883 196.96 31.8301C197.048 31.666 197.092 31.4814 197.092 31.2764C197.092 31.0947 197.054 30.9219 196.977 30.7578C196.907 30.5879 196.778 30.4502 196.591 30.3447C196.409 30.2334 196.151 30.1777 195.817 30.1777C195.542 30.1777 195.296 30.2188 195.079 30.3008C194.868 30.3828 194.701 30.5029 194.578 30.6611C194.461 30.8135 194.402 30.998 194.402 31.2148H191.862C191.862 30.6113 192.035 30.0957 192.381 29.668C192.726 29.2344 193.189 28.9033 193.769 28.6748C194.349 28.4404 194.985 28.3232 195.677 28.3232C196.28 28.3232 196.825 28.3848 197.311 28.5078C197.798 28.625 198.214 28.8008 198.559 29.0352C198.905 29.2695 199.169 29.5596 199.35 29.9053C199.538 30.2451 199.632 30.6406 199.632 31.0918C199.632 31.4141 199.555 31.7188 199.403 32.0059C199.251 32.293 199.031 32.5479 198.744 32.7705C198.457 32.9873 198.108 33.1572 197.698 33.2803C197.294 33.4033 196.837 33.4648 196.327 33.4648ZM194.446 32.832H196.327C196.895 32.832 197.393 32.8877 197.821 32.999C198.255 33.1045 198.618 33.2627 198.911 33.4736C199.204 33.6846 199.424 33.9453 199.57 34.2559C199.722 34.5605 199.799 34.9121 199.799 35.3105C199.799 35.7617 199.699 36.166 199.5 36.5234C199.301 36.875 199.016 37.1738 198.647 37.4199C198.278 37.666 197.842 37.8535 197.338 37.9824C196.834 38.1113 196.28 38.1758 195.677 38.1758C195.032 38.1758 194.405 38.0703 193.796 37.8594C193.186 37.6484 192.685 37.3232 192.293 36.8838C191.906 36.4443 191.713 35.8789 191.713 35.1875H194.253C194.253 35.3867 194.311 35.5742 194.429 35.75C194.546 35.9258 194.721 36.0664 194.956 36.1719C195.19 36.2715 195.48 36.3213 195.826 36.3213C196.172 36.3213 196.45 36.2656 196.661 36.1543C196.872 36.043 197.024 35.8965 197.118 35.7148C197.218 35.5273 197.267 35.334 197.267 35.1348C197.267 34.8535 197.212 34.625 197.1 34.4492C196.995 34.2734 196.831 34.1445 196.608 34.0625C196.391 33.9805 196.119 33.9395 195.791 33.9395H194.446V32.832ZM206.637 35.8555V31.6191C206.637 31.3145 206.587 31.0537 206.488 30.8369C206.388 30.6143 206.233 30.4414 206.022 30.3184C205.817 30.1953 205.55 30.1338 205.222 30.1338C204.941 30.1338 204.698 30.1836 204.493 30.2832C204.288 30.377 204.129 30.5146 204.018 30.6963C203.907 30.8721 203.851 31.0801 203.851 31.3203H201.32C201.32 30.916 201.413 30.5322 201.601 30.1689C201.788 29.8057 202.061 29.4863 202.418 29.2109C202.776 28.9297 203.201 28.71 203.693 28.5518C204.191 28.3936 204.747 28.3145 205.363 28.3145C206.101 28.3145 206.757 28.4375 207.331 28.6836C207.906 28.9297 208.357 29.2988 208.685 29.791C209.019 30.2832 209.186 30.8984 209.186 31.6367V35.7061C209.186 36.2275 209.218 36.6553 209.283 36.9893C209.347 37.3174 209.441 37.6045 209.564 37.8506V38H207.006C206.883 37.7422 206.789 37.4199 206.725 37.0332C206.666 36.6406 206.637 36.248 206.637 35.8555ZM206.971 32.208L206.989 33.6406H205.574C205.24 33.6406 204.95 33.6787 204.704 33.7549C204.457 33.8311 204.255 33.9395 204.097 34.0801C203.939 34.2148 203.822 34.373 203.746 34.5547C203.675 34.7363 203.64 34.9355 203.64 35.1523C203.64 35.3691 203.69 35.5654 203.789 35.7412C203.889 35.9111 204.033 36.0459 204.22 36.1455C204.408 36.2393 204.627 36.2861 204.879 36.2861C205.26 36.2861 205.591 36.21 205.872 36.0576C206.154 35.9053 206.371 35.7178 206.523 35.4951C206.681 35.2725 206.763 35.0615 206.769 34.8623L207.437 35.9346C207.343 36.1748 207.214 36.4238 207.05 36.6816C206.892 36.9395 206.69 37.1826 206.444 37.4111C206.198 37.6338 205.902 37.8184 205.556 37.9648C205.21 38.1055 204.8 38.1758 204.326 38.1758C203.722 38.1758 203.174 38.0557 202.682 37.8154C202.196 37.5693 201.809 37.2324 201.522 36.8047C201.241 36.3711 201.1 35.8789 201.1 35.3281C201.1 34.8301 201.194 34.3877 201.381 34.001C201.569 33.6143 201.844 33.2891 202.207 33.0254C202.577 32.7559 203.037 32.5537 203.587 32.4189C204.138 32.2783 204.777 32.208 205.503 32.208H206.971ZM213.001 28.4902H215.532L215.453 31.6719C215.43 32.6914 215.312 33.5674 215.102 34.2998C214.891 35.0322 214.609 35.6475 214.258 36.1455C213.906 36.6436 213.505 37.042 213.054 37.3408C212.608 37.6338 212.14 37.8535 211.647 38H211.173L211.146 36.0488L211.41 36.0225C211.709 35.7119 211.955 35.4102 212.148 35.1172C212.342 34.8184 212.491 34.5049 212.597 34.1768C212.702 33.8486 212.778 33.4824 212.825 33.0781C212.878 32.6738 212.91 32.2051 212.922 31.6719L213.001 28.4902ZM213.687 28.4902H219.988V38H217.466V30.5205H213.687V28.4902ZM210.593 36.0225H221.351V40.8564H218.819V38H213.186V40.8564H210.593V36.0225ZM227.925 35.8555V31.6191C227.925 31.3145 227.876 31.0537 227.776 30.8369C227.676 30.6143 227.521 30.4414 227.31 30.3184C227.105 30.1953 226.838 30.1338 226.51 30.1338C226.229 30.1338 225.986 30.1836 225.781 30.2832C225.576 30.377 225.418 30.5146 225.306 30.6963C225.195 30.8721 225.139 31.0801 225.139 31.3203H222.608C222.608 30.916 222.702 30.5322 222.889 30.1689C223.077 29.8057 223.349 29.4863 223.707 29.2109C224.064 28.9297 224.489 28.71 224.981 28.5518C225.479 28.3936 226.036 28.3145 226.651 28.3145C227.389 28.3145 228.046 28.4375 228.62 28.6836C229.194 28.9297 229.645 29.2988 229.973 29.791C230.307 30.2832 230.474 30.8984 230.474 31.6367V35.7061C230.474 36.2275 230.506 36.6553 230.571 36.9893C230.635 37.3174 230.729 37.6045 230.852 37.8506V38H228.295C228.171 37.7422 228.078 37.4199 228.013 37.0332C227.955 36.6406 227.925 36.248 227.925 35.8555ZM228.259 32.208L228.277 33.6406H226.862C226.528 33.6406 226.238 33.6787 225.992 33.7549C225.746 33.8311 225.544 33.9395 225.385 34.0801C225.227 34.2148 225.11 34.373 225.034 34.5547C224.963 34.7363 224.928 34.9355 224.928 35.1523C224.928 35.3691 224.978 35.5654 225.078 35.7412C225.177 35.9111 225.321 36.0459 225.508 36.1455C225.696 36.2393 225.916 36.2861 226.168 36.2861C226.548 36.2861 226.879 36.21 227.161 36.0576C227.442 35.9053 227.659 35.7178 227.811 35.4951C227.969 35.2725 228.051 35.0615 228.057 34.8623L228.725 35.9346C228.631 36.1748 228.503 36.4238 228.338 36.6816C228.18 36.9395 227.978 37.1826 227.732 37.4111C227.486 37.6338 227.19 37.8184 226.844 37.9648C226.499 38.1055 226.088 38.1758 225.614 38.1758C225.01 38.1758 224.462 38.0557 223.97 37.8154C223.484 37.5693 223.097 37.2324 222.81 36.8047C222.529 36.3711 222.388 35.8789 222.388 35.3281C222.388 34.8301 222.482 34.3877 222.67 34.001C222.857 33.6143 223.132 33.2891 223.496 33.0254C223.865 32.7559 224.325 32.5537 224.876 32.4189C225.426 32.2783 226.065 32.208 226.792 32.208H228.259ZM239.088 32.3311V34.2998H234.254V32.3311H239.088ZM235.098 28.4902V38H232.567V28.4902H235.098ZM240.802 28.4902V38H238.262V28.4902H240.802ZM245.443 34.4668L248.634 28.4902H251.165V38H248.634V32.0146L245.443 38H242.912V28.4902H245.443V34.4668ZM255.314 33.2539H257.88L255.235 38H252.677L255.314 33.2539ZM257.019 28.4902H261.194V38H258.663V30.4502H257.019C256.673 30.4502 256.386 30.5146 256.158 30.6436C255.929 30.7666 255.759 30.9277 255.648 31.127C255.542 31.3203 255.49 31.5195 255.49 31.7246C255.49 31.9238 255.542 32.1172 255.648 32.3047C255.753 32.4922 255.917 32.6475 256.14 32.7705C256.363 32.8936 256.641 32.9551 256.975 32.9551H259.603V34.6777H256.975C256.348 34.6777 255.786 34.6016 255.288 34.4492C254.795 34.2969 254.373 34.0859 254.022 33.8164C253.676 33.541 253.41 33.2217 253.222 32.8584C253.04 32.4893 252.95 32.085 252.95 31.6455C252.95 31.1885 253.043 30.7695 253.231 30.3887C253.418 30.0078 253.688 29.6738 254.039 29.3867C254.391 29.0996 254.816 28.8799 255.314 28.7275C255.818 28.5693 256.386 28.4902 257.019 28.4902Z" fill="black"/>
<rect x="16" y="48" width="328" height="53" rx="12" fill="#FFEFED"/>
<path d="M37.375 67.6797H34.4922L34.4766 66.4688H37.0938C37.526 66.4688 37.9036 66.3958 38.2266 66.25C38.5495 66.1042 38.7995 65.8958 38.9766 65.625C39.1589 65.349 39.25 65.0208 39.25 64.6406C39.25 64.224 39.1693 63.8854 39.0078 63.625C38.8516 63.3594 38.6094 63.1667 38.2812 63.0469C37.9583 62.9219 37.5469 62.8594 37.0469 62.8594H34.8281V73H33.3203V61.625H37.0469C37.6302 61.625 38.151 61.6849 38.6094 61.8047C39.0677 61.9193 39.4557 62.1016 39.7734 62.3516C40.0964 62.5964 40.3411 62.9089 40.5078 63.2891C40.6745 63.6693 40.7578 64.125 40.7578 64.6562C40.7578 65.125 40.638 65.5495 40.3984 65.9297C40.1589 66.3047 39.8255 66.612 39.3984 66.8516C38.9766 67.0911 38.4818 67.2448 37.9141 67.3125L37.375 67.6797ZM37.3047 73H33.8984L34.75 71.7734H37.3047C37.7839 71.7734 38.1901 71.6901 38.5234 71.5234C38.862 71.3568 39.1198 71.1224 39.2969 70.8203C39.474 70.513 39.5625 70.151 39.5625 69.7344C39.5625 69.3125 39.487 68.9479 39.3359 68.6406C39.1849 68.3333 38.9479 68.0964 38.625 67.9297C38.3021 67.763 37.8854 67.6797 37.375 67.6797H35.2266L35.2422 66.4688H38.1797L38.5 66.9062C39.0469 66.9531 39.5104 67.1094 39.8906 67.375C40.2708 67.6354 40.5599 67.9688 40.7578 68.375C40.9609 68.7812 41.0625 69.2292 41.0625 69.7188C41.0625 70.4271 40.9062 71.026 40.5938 71.5156C40.2865 72 39.8516 72.3698 39.2891 72.625C38.7266 72.875 38.0651 73 37.3047 73ZM44.6578 67.4531H47.1969C47.8792 67.4531 48.4547 67.5729 48.9234 67.8125C49.3922 68.0469 49.7464 68.3724 49.9859 68.7891C50.2307 69.2005 50.3531 69.6693 50.3531 70.1953C50.3531 70.5859 50.2854 70.9531 50.15 71.2969C50.0146 71.6354 49.8115 71.9323 49.5406 72.1875C49.275 72.4427 48.9443 72.6432 48.5484 72.7891C48.1578 72.9297 47.7073 73 47.1969 73H43.6031V64.5469H45.0484V71.8125H47.1969C47.6135 71.8125 47.9469 71.737 48.1969 71.5859C48.4469 71.4349 48.6266 71.2396 48.7359 71C48.8453 70.7604 48.9 70.5104 48.9 70.25C48.9 69.9948 48.8453 69.7448 48.7359 69.5C48.6266 69.2552 48.4469 69.0521 48.1969 68.8906C47.9469 68.724 47.6135 68.6406 47.1969 68.6406H44.6578V67.4531ZM53.3609 64.5469V73H51.9156V64.5469H53.3609ZM58.6672 72.125L61.0187 64.5469H62.5656L59.175 74.3047C59.0969 74.513 58.9927 74.737 58.8625 74.9766C58.7375 75.2214 58.576 75.4531 58.3781 75.6719C58.1802 75.8906 57.9406 76.0677 57.6594 76.2031C57.3833 76.3438 57.0526 76.4141 56.6672 76.4141C56.5526 76.4141 56.4068 76.3984 56.2297 76.3672C56.0526 76.3359 55.9276 76.3099 55.8547 76.2891L55.8469 75.1172C55.8885 75.1224 55.9536 75.1276 56.0422 75.1328C56.1359 75.1432 56.201 75.1484 56.2375 75.1484C56.5656 75.1484 56.8443 75.1042 57.0734 75.0156C57.3026 74.9323 57.4953 74.7891 57.6516 74.5859C57.813 74.388 57.951 74.1146 58.0656 73.7656L58.6672 72.125ZM56.9406 64.5469L59.1359 71.1094L59.5109 72.6328L58.4719 73.1641L55.3625 64.5469H56.9406ZM70.6453 64.5469V73H69.2V64.5469H70.6453ZM70.1531 68.4297V69.6172C69.8615 69.7266 69.5646 69.8255 69.2625 69.9141C68.9656 69.9974 68.6505 70.0651 68.3172 70.1172C67.9891 70.1641 67.6323 70.1875 67.2469 70.1875C66.5802 70.1875 66.0021 70.0729 65.5125 69.8438C65.0229 69.6094 64.6453 69.2578 64.3797 68.7891C64.1141 68.3151 63.9813 67.7188 63.9813 67V64.5312H65.4266V67C65.4266 67.4688 65.4969 67.849 65.6375 68.1406C65.7781 68.4323 65.9839 68.6484 66.2547 68.7891C66.5255 68.9245 66.8563 68.9922 67.2469 68.9922C67.6219 68.9922 67.9734 68.9688 68.3016 68.9219C68.6349 68.8698 68.9526 68.8021 69.2547 68.7188C69.562 68.6354 69.8615 68.5391 70.1531 68.4297ZM74.9359 70.7109L78.8344 64.5469H80.2875V73H78.8344V66.8359L74.9359 73H73.4984V64.5469H74.9359V70.7109ZM86.4531 64.5469V73H85V64.5469H86.4531ZM89.2891 64.5469V65.7188H82.2188V64.5469H89.2891ZM92.2984 67.4531H94.8375C95.5198 67.4531 96.0953 67.5729 96.5641 67.8125C97.0328 68.0469 97.387 68.3724 97.6266 68.7891C97.8714 69.2005 97.9938 69.6693 97.9938 70.1953C97.9938 70.5859 97.926 70.9531 97.7906 71.2969C97.6552 71.6354 97.4521 71.9323 97.1813 72.1875C96.9156 72.4427 96.5849 72.6432 96.1891 72.7891C95.7984 72.9297 95.3479 73 94.8375 73H91.2438V64.5469H92.6891V71.8125H94.8375C95.2542 71.8125 95.5875 71.737 95.8375 71.5859C96.0875 71.4349 96.2672 71.2396 96.3766 71C96.4859 70.7604 96.5406 70.5104 96.5406 70.25C96.5406 69.9948 96.4859 69.7448 96.3766 69.5C96.2672 69.2552 96.0875 69.0521 95.8375 68.8906C95.5875 68.724 95.2542 68.6406 94.8375 68.6406H92.2984V67.4531ZM108.536 69.2812H105.762L105.747 68.125H108.012C108.46 68.125 108.833 68.0807 109.13 67.9922C109.432 67.9036 109.658 67.7708 109.809 67.5938C109.96 67.4167 110.036 67.1979 110.036 66.9375C110.036 66.7344 109.992 66.5573 109.903 66.4062C109.82 66.25 109.692 66.1224 109.52 66.0234C109.348 65.9193 109.135 65.8438 108.88 65.7969C108.63 65.7448 108.335 65.7188 107.997 65.7188H106.145V73H104.7V64.5469H107.997C108.533 64.5469 109.015 64.5938 109.442 64.6875C109.874 64.7812 110.242 64.9245 110.544 65.1172C110.851 65.3047 111.085 65.5443 111.247 65.8359C111.408 66.1276 111.489 66.4714 111.489 66.8672C111.489 67.1224 111.437 67.3646 111.333 67.5938C111.229 67.8229 111.075 68.026 110.872 68.2031C110.669 68.3802 110.419 68.526 110.122 68.6406C109.825 68.75 109.484 68.8203 109.098 68.8516L108.536 69.2812ZM108.536 73H105.239L105.958 71.8281H108.536C108.937 71.8281 109.27 71.7786 109.536 71.6797C109.802 71.5755 109.999 71.4297 110.13 71.2422C110.265 71.0495 110.333 70.8203 110.333 70.5547C110.333 70.2891 110.265 70.0625 110.13 69.875C109.999 69.6823 109.802 69.5365 109.536 69.4375C109.27 69.3333 108.937 69.2812 108.536 69.2812H106.341L106.356 68.125H109.098L109.622 68.5625C110.085 68.599 110.479 68.7135 110.802 68.9062C111.124 69.099 111.369 69.3438 111.536 69.6406C111.703 69.9323 111.786 70.25 111.786 70.5938C111.786 70.9896 111.71 71.3385 111.559 71.6406C111.414 71.9427 111.2 72.1953 110.919 72.3984C110.637 72.5964 110.296 72.7474 109.895 72.8516C109.494 72.9505 109.041 73 108.536 73ZM117.506 71.9688C117.85 71.9688 118.168 71.8984 118.459 71.7578C118.751 71.6172 118.991 71.4245 119.178 71.1797C119.366 70.9297 119.472 70.6458 119.498 70.3281H120.873C120.847 70.8281 120.678 71.2943 120.366 71.7266C120.058 72.1536 119.655 72.5 119.155 72.7656C118.655 73.026 118.105 73.1562 117.506 73.1562C116.871 73.1562 116.316 73.0443 115.842 72.8203C115.373 72.5964 114.983 72.2891 114.67 71.8984C114.363 71.5078 114.131 71.0599 113.975 70.5547C113.824 70.0443 113.748 69.5052 113.748 68.9375V68.6094C113.748 68.0417 113.824 67.5052 113.975 67C114.131 66.4896 114.363 66.0391 114.67 65.6484C114.983 65.2578 115.373 64.9505 115.842 64.7266C116.316 64.5026 116.871 64.3906 117.506 64.3906C118.168 64.3906 118.746 64.526 119.241 64.7969C119.735 65.0625 120.123 65.4271 120.405 65.8906C120.691 66.349 120.847 66.8698 120.873 67.4531H119.498C119.472 67.1042 119.373 66.7891 119.202 66.5078C119.035 66.2266 118.806 66.0026 118.514 65.8359C118.228 65.6641 117.892 65.5781 117.506 65.5781C117.064 65.5781 116.691 65.6667 116.389 65.8438C116.092 66.0156 115.855 66.25 115.678 66.5469C115.506 66.8385 115.381 67.1641 115.303 67.5234C115.23 67.8776 115.194 68.2396 115.194 68.6094V68.9375C115.194 69.3073 115.23 69.6719 115.303 70.0312C115.376 70.3906 115.498 70.7161 115.67 71.0078C115.847 71.2995 116.084 71.5339 116.381 71.7109C116.683 71.8828 117.058 71.9688 117.506 71.9688ZM126.406 73.1562C125.818 73.1562 125.284 73.0573 124.805 72.8594C124.331 72.6562 123.922 72.3724 123.578 72.0078C123.24 71.6432 122.979 71.2109 122.797 70.7109C122.615 70.2109 122.523 69.6641 122.523 69.0703V68.7422C122.523 68.0547 122.625 67.4427 122.828 66.9062C123.031 66.3646 123.307 65.9062 123.656 65.5312C124.005 65.1562 124.401 64.8724 124.844 64.6797C125.286 64.487 125.745 64.3906 126.219 64.3906C126.823 64.3906 127.344 64.4948 127.781 64.7031C128.224 64.9115 128.586 65.2031 128.867 65.5781C129.148 65.9479 129.357 66.3854 129.492 66.8906C129.628 67.3906 129.695 67.9375 129.695 68.5312V69.1797H123.383V68H128.25V67.8906C128.229 67.5156 128.151 67.151 128.016 66.7969C127.885 66.4427 127.677 66.151 127.391 65.9219C127.104 65.6927 126.714 65.5781 126.219 65.5781C125.891 65.5781 125.589 65.6484 125.312 65.7891C125.036 65.9245 124.799 66.1276 124.602 66.3984C124.404 66.6693 124.25 67 124.141 67.3906C124.031 67.7812 123.977 68.2318 123.977 68.7422V69.0703C123.977 69.4714 124.031 69.849 124.141 70.2031C124.255 70.5521 124.419 70.8594 124.633 71.125C124.852 71.3906 125.115 71.599 125.422 71.75C125.734 71.901 126.089 71.9766 126.484 71.9766C126.995 71.9766 127.427 71.8724 127.781 71.6641C128.135 71.4557 128.445 71.1771 128.711 70.8281L129.586 71.5234C129.404 71.7995 129.172 72.0625 128.891 72.3125C128.609 72.5625 128.263 72.7656 127.852 72.9219C127.445 73.0781 126.964 73.1562 126.406 73.1562Z" fill="#410002"/>
<path d="M220.652 69.061H221.871C221.808 69.645 221.64 70.1676 221.37 70.6289C221.099 71.0902 220.716 71.4562 220.221 71.7271C219.726 71.9937 219.108 72.127 218.367 72.127C217.826 72.127 217.333 72.0254 216.888 71.8223C216.448 71.6191 216.069 71.3314 215.752 70.959C215.435 70.5824 215.189 70.1317 215.016 69.6069C214.846 69.078 214.762 68.4897 214.762 67.8423V66.9219C214.762 66.2744 214.846 65.6883 215.016 65.1636C215.189 64.6346 215.437 64.1818 215.758 63.8052C216.084 63.4285 216.476 63.1387 216.933 62.9355C217.39 62.7324 217.904 62.6309 218.475 62.6309C219.173 62.6309 219.764 62.762 220.246 63.0244C220.729 63.2868 221.103 63.6507 221.37 64.1162C221.64 64.5775 221.808 65.1128 221.871 65.7222H220.652C220.593 65.2905 220.483 64.9202 220.322 64.6113C220.161 64.2982 219.933 64.057 219.637 63.8877C219.34 63.7184 218.953 63.6338 218.475 63.6338C218.065 63.6338 217.703 63.7121 217.39 63.8687C217.081 64.0252 216.82 64.2474 216.609 64.5352C216.402 64.8229 216.245 65.1678 216.139 65.5698C216.033 65.9718 215.98 66.4183 215.98 66.9092V67.8423C215.98 68.2951 216.027 68.7204 216.12 69.1182C216.217 69.516 216.363 69.8651 216.558 70.1655C216.753 70.466 217 70.703 217.301 70.8765C217.601 71.0457 217.957 71.1304 218.367 71.1304C218.888 71.1304 219.302 71.0479 219.611 70.8828C219.92 70.7178 220.153 70.4808 220.31 70.1719C220.47 69.863 220.585 69.4927 220.652 69.061ZM224.637 66.4521V74.6406H223.456V65.1318H224.536L224.637 66.4521ZM229.265 68.5088V68.6421C229.265 69.1414 229.205 69.6048 229.087 70.0322C228.968 70.4554 228.795 70.8236 228.566 71.1367C228.342 71.4499 228.065 71.6932 227.735 71.8667C227.405 72.0402 227.026 72.127 226.599 72.127C226.163 72.127 225.778 72.055 225.443 71.9111C225.109 71.7673 224.825 71.5578 224.593 71.2827C224.36 71.0076 224.174 70.6776 224.034 70.2925C223.899 69.9074 223.806 69.4736 223.755 68.9912V68.2803C223.806 67.7725 223.901 67.3175 224.04 66.9155C224.18 66.5135 224.364 66.1707 224.593 65.8872C224.825 65.5994 225.107 65.3815 225.437 65.2334C225.767 65.0811 226.148 65.0049 226.579 65.0049C227.011 65.0049 227.394 65.0895 227.728 65.2588C228.063 65.4238 228.344 65.6608 228.573 65.9697C228.801 66.2786 228.973 66.6489 229.087 67.0806C229.205 67.508 229.265 67.984 229.265 68.5088ZM228.084 68.6421V68.5088C228.084 68.166 228.048 67.8444 227.976 67.5439C227.904 67.2393 227.792 66.9727 227.64 66.7441C227.491 66.5114 227.301 66.3294 227.068 66.1982C226.836 66.0628 226.558 65.9951 226.237 65.9951C225.94 65.9951 225.682 66.0459 225.462 66.1475C225.246 66.249 225.062 66.3866 224.91 66.5601C224.758 66.7293 224.633 66.924 224.536 67.144C224.442 67.3599 224.373 67.5841 224.326 67.8169V69.4609C224.411 69.7572 224.529 70.0365 224.682 70.2988C224.834 70.557 225.037 70.7664 225.291 70.9272C225.545 71.0838 225.864 71.1621 226.249 71.1621C226.567 71.1621 226.84 71.0965 227.068 70.9653C227.301 70.8299 227.491 70.6458 227.64 70.4131C227.792 70.1803 227.904 69.9137 227.976 69.6133C228.048 69.3086 228.084 68.9849 228.084 68.6421ZM230.552 68.6421V68.4961C230.552 68.001 230.624 67.5418 230.767 67.1187C230.911 66.6912 231.119 66.321 231.389 66.0078C231.66 65.6904 231.988 65.445 232.373 65.2715C232.758 65.0938 233.19 65.0049 233.668 65.0049C234.151 65.0049 234.584 65.0938 234.97 65.2715C235.359 65.445 235.689 65.6904 235.96 66.0078C236.235 66.321 236.444 66.6912 236.588 67.1187C236.732 67.5418 236.804 68.001 236.804 68.4961V68.6421C236.804 69.1372 236.732 69.5964 236.588 70.0195C236.444 70.4427 236.235 70.813 235.96 71.1304C235.689 71.4435 235.361 71.689 234.976 71.8667C234.595 72.0402 234.163 72.127 233.681 72.127C233.199 72.127 232.765 72.0402 232.38 71.8667C231.995 71.689 231.665 71.4435 231.389 71.1304C231.119 70.813 230.911 70.4427 230.767 70.0195C230.624 69.5964 230.552 69.1372 230.552 68.6421ZM231.726 68.4961V68.6421C231.726 68.9849 231.766 69.3086 231.846 69.6133C231.927 69.9137 232.047 70.1803 232.208 70.4131C232.373 70.6458 232.579 70.8299 232.824 70.9653C233.069 71.0965 233.355 71.1621 233.681 71.1621C234.003 71.1621 234.284 71.0965 234.525 70.9653C234.771 70.8299 234.974 70.6458 235.135 70.4131C235.295 70.1803 235.416 69.9137 235.496 69.6133C235.581 69.3086 235.623 68.9849 235.623 68.6421V68.4961C235.623 68.1576 235.581 67.8381 235.496 67.5376C235.416 67.2329 235.293 66.9642 235.128 66.7314C234.967 66.4945 234.764 66.3083 234.519 66.1729C234.278 66.0374 233.994 65.9697 233.668 65.9697C233.347 65.9697 233.063 66.0374 232.818 66.1729C232.576 66.3083 232.373 66.4945 232.208 66.7314C232.047 66.9642 231.927 67.2329 231.846 67.5376C231.766 67.8381 231.726 68.1576 231.726 68.4961ZM239.653 65.1318V72H238.478V65.1318H239.653ZM244.159 65.1318L240.903 69.0674H239.259L239.081 68.0391H240.427L242.731 65.1318H244.159ZM242.896 72L240.37 68.8896L241.125 68.0391L244.388 72H242.896ZM251.583 71.1621C251.862 71.1621 252.12 71.105 252.357 70.9907C252.594 70.8765 252.789 70.7199 252.941 70.521C253.094 70.3179 253.181 70.0872 253.202 69.8291H254.319C254.298 70.2354 254.16 70.6141 253.906 70.9653C253.657 71.3123 253.329 71.5938 252.922 71.8096C252.516 72.0212 252.07 72.127 251.583 72.127C251.067 72.127 250.616 72.036 250.231 71.854C249.85 71.672 249.533 71.4224 249.279 71.105C249.029 70.7876 248.841 70.4237 248.714 70.0132C248.591 69.5985 248.53 69.1605 248.53 68.6992V68.4326C248.53 67.9714 248.591 67.5355 248.714 67.125C248.841 66.7103 249.029 66.3442 249.279 66.0269C249.533 65.7095 249.85 65.4598 250.231 65.2778C250.616 65.0959 251.067 65.0049 251.583 65.0049C252.12 65.0049 252.59 65.1149 252.992 65.335C253.394 65.5508 253.709 65.847 253.938 66.2236C254.171 66.596 254.298 67.0192 254.319 67.4932H253.202C253.181 67.2096 253.1 66.9536 252.96 66.7251C252.825 66.4966 252.639 66.3146 252.402 66.1792C252.169 66.0396 251.896 65.9697 251.583 65.9697C251.223 65.9697 250.921 66.0417 250.675 66.1855C250.434 66.3252 250.242 66.5156 250.098 66.7568C249.958 66.9938 249.856 67.2583 249.793 67.5503C249.734 67.8381 249.704 68.1322 249.704 68.4326V68.6992C249.704 68.9997 249.734 69.2959 249.793 69.5879C249.852 69.8799 249.952 70.1444 250.091 70.3813C250.235 70.6183 250.428 70.8088 250.669 70.9526C250.914 71.0923 251.219 71.1621 251.583 71.1621ZM256.977 65.1318H258.151L258.05 67.7026C258.024 68.3543 257.95 68.9172 257.828 69.3911C257.705 69.8651 257.548 70.2692 257.358 70.6035C257.167 70.9336 256.954 71.2108 256.717 71.4351C256.484 71.6593 256.243 71.8477 255.993 72H255.409L255.441 71.0415L255.682 71.0352C255.822 70.8701 255.957 70.7008 256.088 70.5273C256.219 70.3496 256.34 70.1401 256.45 69.8989C256.56 69.6535 256.651 69.3551 256.723 69.0039C256.799 68.6484 256.848 68.2147 256.869 67.7026L256.977 65.1318ZM257.269 65.1318H261.401V72H260.227V66.2173H257.269V65.1318ZM255.142 71.0352H262.284V74.0249H261.109V72H256.317V74.0249H255.136L255.142 71.0352ZM267.735 70.8257V67.29C267.735 67.0192 267.68 66.7843 267.57 66.5854C267.464 66.3823 267.303 66.2257 267.087 66.1157C266.871 66.0057 266.605 65.9507 266.287 65.9507C265.991 65.9507 265.731 66.0015 265.507 66.103C265.287 66.2046 265.113 66.3379 264.986 66.5029C264.863 66.668 264.802 66.8457 264.802 67.0361H263.628C263.628 66.7907 263.691 66.5474 263.818 66.3062C263.945 66.0649 264.127 65.847 264.364 65.6523C264.605 65.4535 264.893 65.2969 265.227 65.1826C265.566 65.0641 265.943 65.0049 266.357 65.0049C266.857 65.0049 267.297 65.0895 267.678 65.2588C268.063 65.4281 268.363 65.6841 268.579 66.0269C268.799 66.3654 268.909 66.7907 268.909 67.3027V70.502C268.909 70.7305 268.928 70.9738 268.966 71.2319C269.008 71.4901 269.07 71.7122 269.15 71.8984V72H267.925C267.866 71.8646 267.819 71.6847 267.785 71.4604C267.752 71.2319 267.735 71.0203 267.735 70.8257ZM267.938 67.8359L267.95 68.6611H266.763C266.429 68.6611 266.131 68.6886 265.868 68.7437C265.606 68.7944 265.386 68.8727 265.208 68.9785C265.031 69.0843 264.895 69.2176 264.802 69.3784C264.709 69.535 264.662 69.7191 264.662 69.9307C264.662 70.1465 264.711 70.3433 264.808 70.521C264.906 70.6987 265.052 70.8405 265.246 70.9463C265.445 71.0479 265.689 71.0986 265.976 71.0986C266.336 71.0986 266.653 71.0225 266.929 70.8701C267.204 70.7178 267.422 70.5316 267.582 70.3115C267.747 70.0915 267.836 69.8778 267.849 69.6704L268.35 70.2354C268.321 70.4131 268.24 70.6099 268.109 70.8257C267.978 71.0415 267.802 71.2489 267.582 71.4478C267.367 71.6424 267.108 71.8053 266.808 71.9365C266.512 72.0635 266.177 72.127 265.805 72.127C265.339 72.127 264.931 72.036 264.58 71.854C264.233 71.672 263.962 71.4287 263.767 71.124C263.577 70.8151 263.482 70.4702 263.482 70.0894C263.482 69.7212 263.554 69.3975 263.698 69.1182C263.841 68.8346 264.049 68.5998 264.32 68.4136C264.59 68.2231 264.916 68.0793 265.297 67.9819C265.678 67.8846 266.103 67.8359 266.573 67.8359H267.938ZM276.036 65.1318V72H274.862V65.1318H276.036ZM275.636 68.2866V69.2515C275.399 69.3403 275.158 69.4207 274.912 69.4927C274.671 69.5604 274.415 69.6154 274.144 69.6577C273.878 69.6958 273.588 69.7148 273.275 69.7148C272.733 69.7148 272.263 69.6217 271.865 69.4355C271.468 69.2451 271.161 68.9595 270.945 68.5786C270.729 68.1935 270.621 67.709 270.621 67.125V65.1191H271.796V67.125C271.796 67.5059 271.853 67.8148 271.967 68.0518C272.081 68.2887 272.248 68.4644 272.468 68.5786C272.689 68.6886 272.957 68.7437 273.275 68.7437C273.579 68.7437 273.865 68.7246 274.132 68.6865C274.402 68.6442 274.661 68.5892 274.906 68.5215C275.156 68.4538 275.399 68.3755 275.636 68.2866ZM279.297 70.1401L282.464 65.1318H283.645V72H282.464V66.9917L279.297 72H278.129V65.1318H279.297V70.1401ZM285.58 71.3779C285.58 71.179 285.641 71.0119 285.764 70.8765C285.891 70.7368 286.073 70.667 286.31 70.667C286.547 70.667 286.726 70.7368 286.849 70.8765C286.976 71.0119 287.04 71.179 287.04 71.3779C287.04 71.5726 286.976 71.7376 286.849 71.873C286.726 72.0085 286.547 72.0762 286.31 72.0762C286.073 72.0762 285.891 72.0085 285.764 71.873C285.641 71.7376 285.58 71.5726 285.58 71.3779ZM285.586 65.7729C285.586 65.5741 285.647 65.4069 285.77 65.2715C285.897 65.1318 286.079 65.062 286.316 65.062C286.553 65.062 286.733 65.1318 286.855 65.2715C286.982 65.4069 287.046 65.5741 287.046 65.7729C287.046 65.9676 286.982 66.1326 286.855 66.2681C286.733 66.4035 286.553 66.4712 286.316 66.4712C286.079 66.4712 285.897 66.4035 285.77 66.2681C285.647 66.1326 285.586 65.9676 285.586 65.7729ZM298.05 62.7578V63.418L294.222 72H292.984L296.805 63.7227H291.804V62.7578H298.05ZM306.99 70.8257V67.29C306.99 67.0192 306.935 66.7843 306.825 66.5854C306.72 66.3823 306.559 66.2257 306.343 66.1157C306.127 66.0057 305.86 65.9507 305.543 65.9507C305.247 65.9507 304.987 66.0015 304.762 66.103C304.542 66.2046 304.369 66.3379 304.242 66.5029C304.119 66.668 304.058 66.8457 304.058 67.0361H302.883C302.883 66.7907 302.947 66.5474 303.074 66.3062C303.201 66.0649 303.383 65.847 303.62 65.6523C303.861 65.4535 304.149 65.2969 304.483 65.1826C304.822 65.0641 305.198 65.0049 305.613 65.0049C306.112 65.0049 306.552 65.0895 306.933 65.2588C307.318 65.4281 307.619 65.6841 307.835 66.0269C308.055 66.3654 308.165 66.7907 308.165 67.3027V70.502C308.165 70.7305 308.184 70.9738 308.222 71.2319C308.264 71.4901 308.325 71.7122 308.406 71.8984V72H307.181C307.122 71.8646 307.075 71.6847 307.041 71.4604C307.007 71.2319 306.99 71.0203 306.99 70.8257ZM307.193 67.8359L307.206 68.6611H306.019C305.685 68.6611 305.386 68.6886 305.124 68.7437C304.862 68.7944 304.642 68.8727 304.464 68.9785C304.286 69.0843 304.151 69.2176 304.058 69.3784C303.965 69.535 303.918 69.7191 303.918 69.9307C303.918 70.1465 303.967 70.3433 304.064 70.521C304.161 70.6987 304.307 70.8405 304.502 70.9463C304.701 71.0479 304.944 71.0986 305.232 71.0986C305.592 71.0986 305.909 71.0225 306.184 70.8701C306.459 70.7178 306.677 70.5316 306.838 70.3115C307.003 70.0915 307.092 69.8778 307.105 69.6704L307.606 70.2354C307.576 70.4131 307.496 70.6099 307.365 70.8257C307.234 71.0415 307.058 71.2489 306.838 71.4478C306.622 71.6424 306.364 71.8053 306.064 71.9365C305.767 72.0635 305.433 72.127 305.061 72.127C304.595 72.127 304.187 72.036 303.836 71.854C303.489 71.672 303.218 71.4287 303.023 71.124C302.833 70.8151 302.737 70.4702 302.737 70.0894C302.737 69.7212 302.809 69.3975 302.953 69.1182C303.097 68.8346 303.304 68.5998 303.575 68.4136C303.846 68.2231 304.172 68.0793 304.553 67.9819C304.934 67.8846 305.359 67.8359 305.829 67.8359H307.193ZM314.688 65.1318V66.103H311.216V65.1318H314.688ZM311.388 65.1318V72H310.213V65.1318H311.388ZM315.729 65.1318V72H314.549V65.1318H315.729ZM318.889 66.4521V74.6406H317.708V65.1318H318.787L318.889 66.4521ZM323.517 68.5088V68.6421C323.517 69.1414 323.457 69.6048 323.339 70.0322C323.22 70.4554 323.047 70.8236 322.818 71.1367C322.594 71.4499 322.317 71.6932 321.987 71.8667C321.657 72.0402 321.278 72.127 320.85 72.127C320.415 72.127 320.03 72.055 319.695 71.9111C319.361 71.7673 319.077 71.5578 318.845 71.2827C318.612 71.0076 318.426 70.6776 318.286 70.2925C318.151 69.9074 318.058 69.4736 318.007 68.9912V68.2803C318.058 67.7725 318.153 67.3175 318.292 66.9155C318.432 66.5135 318.616 66.1707 318.845 65.8872C319.077 65.5994 319.359 65.3815 319.689 65.2334C320.019 65.0811 320.4 65.0049 320.831 65.0049C321.263 65.0049 321.646 65.0895 321.98 65.2588C322.315 65.4238 322.596 65.6608 322.825 65.9697C323.053 66.2786 323.225 66.6489 323.339 67.0806C323.457 67.508 323.517 67.984 323.517 68.5088ZM322.336 68.6421V68.5088C322.336 68.166 322.3 67.8444 322.228 67.5439C322.156 67.2393 322.044 66.9727 321.892 66.7441C321.743 66.5114 321.553 66.3294 321.32 66.1982C321.087 66.0628 320.81 65.9951 320.489 65.9951C320.192 65.9951 319.934 66.0459 319.714 66.1475C319.498 66.249 319.314 66.3866 319.162 66.5601C319.01 66.7293 318.885 66.924 318.787 67.144C318.694 67.3599 318.625 67.5841 318.578 67.8169V69.4609C318.663 69.7572 318.781 70.0365 318.933 70.2988C319.086 70.557 319.289 70.7664 319.543 70.9272C319.797 71.0838 320.116 71.1621 320.501 71.1621C320.819 71.1621 321.092 71.0965 321.32 70.9653C321.553 70.8299 321.743 70.6458 321.892 70.4131C322.044 70.1803 322.156 69.9137 322.228 69.6133C322.3 69.3086 322.336 68.9849 322.336 68.6421ZM325.134 71.3779C325.134 71.179 325.195 71.0119 325.318 70.8765C325.445 70.7368 325.627 70.667 325.864 70.667C326.101 70.667 326.28 70.7368 326.403 70.8765C326.53 71.0119 326.594 71.179 326.594 71.3779C326.594 71.5726 326.53 71.7376 326.403 71.873C326.28 72.0085 326.101 72.0762 325.864 72.0762C325.627 72.0762 325.445 72.0085 325.318 71.873C325.195 71.7376 325.134 71.5726 325.134 71.3779Z" fill="#410002"/>
<path d="M35.4473 84.2119H33.5479V83.4453H35.4473C35.8151 83.4453 36.113 83.3867 36.3408 83.2695C36.5687 83.1523 36.7347 82.9896 36.8389 82.7812C36.9463 82.5729 37 82.3353 37 82.0684C37 81.8242 36.9463 81.5947 36.8389 81.3799C36.7347 81.165 36.5687 80.9925 36.3408 80.8623C36.113 80.7288 35.8151 80.6621 35.4473 80.6621H33.7676V87H32.8252V79.8906H35.4473C35.9844 79.8906 36.4385 79.9834 36.8096 80.1689C37.1807 80.3545 37.4622 80.6117 37.6543 80.9404C37.8464 81.266 37.9424 81.6387 37.9424 82.0586C37.9424 82.5143 37.8464 82.9033 37.6543 83.2256C37.4622 83.5479 37.1807 83.7936 36.8096 83.9629C36.4385 84.1289 35.9844 84.2119 35.4473 84.2119ZM40.9596 86.4531L42.4293 81.7168H43.3961L41.277 87.8154C41.2281 87.9456 41.163 88.0856 41.0816 88.2354C41.0035 88.3883 40.9026 88.5332 40.7789 88.6699C40.6552 88.8066 40.5055 88.9173 40.3297 89.002C40.1572 89.0898 39.9505 89.1338 39.7096 89.1338C39.638 89.1338 39.5468 89.124 39.4361 89.1045C39.3255 89.085 39.2473 89.0687 39.2018 89.0557L39.1969 88.3232C39.2229 88.3265 39.2636 88.3298 39.3189 88.333C39.3775 88.3395 39.4182 88.3428 39.441 88.3428C39.6461 88.3428 39.8202 88.3151 39.9635 88.2598C40.1067 88.2077 40.2271 88.1182 40.3248 87.9912C40.4257 87.8675 40.512 87.6966 40.5836 87.4785L40.9596 86.4531ZM39.8805 81.7168L41.2525 85.8184L41.4869 86.7705L40.8375 87.1025L38.8941 81.7168H39.8805ZM46.6574 86.3555C46.8723 86.3555 47.0708 86.3115 47.2531 86.2236C47.4354 86.1357 47.5852 86.0153 47.7023 85.8623C47.8195 85.7061 47.8863 85.5286 47.9025 85.3301H48.7619C48.7456 85.6426 48.6398 85.9339 48.4445 86.2041C48.2525 86.471 48.0002 86.6875 47.6877 86.8535C47.3752 87.0163 47.0318 87.0977 46.6574 87.0977C46.2603 87.0977 45.9136 87.0277 45.6174 86.8877C45.3244 86.7477 45.0803 86.5557 44.885 86.3115C44.6929 86.0674 44.548 85.7874 44.4504 85.4717C44.356 85.1527 44.3088 84.8158 44.3088 84.4609V84.2559C44.3088 83.901 44.356 83.5658 44.4504 83.25C44.548 82.931 44.6929 82.6494 44.885 82.4053C45.0803 82.1611 45.3244 81.9691 45.6174 81.8291C45.9136 81.6891 46.2603 81.6191 46.6574 81.6191C47.0708 81.6191 47.4322 81.7038 47.7414 81.873C48.0507 82.0391 48.2932 82.2669 48.4689 82.5566C48.648 82.8431 48.7456 83.1686 48.7619 83.5332H47.9025C47.8863 83.3151 47.8244 83.1182 47.717 82.9424C47.6128 82.7666 47.4696 82.6266 47.2873 82.5225C47.1083 82.415 46.8983 82.3613 46.6574 82.3613C46.3807 82.3613 46.148 82.4167 45.9592 82.5273C45.7736 82.6348 45.6255 82.7812 45.5148 82.9668C45.4074 83.1491 45.3293 83.3525 45.2805 83.5771C45.2349 83.7985 45.2121 84.0247 45.2121 84.2559V84.4609C45.2121 84.6921 45.2349 84.9199 45.2805 85.1445C45.326 85.3691 45.4025 85.5726 45.51 85.7549C45.6206 85.9372 45.7688 86.0837 45.9543 86.1943C46.1431 86.3018 46.3775 86.3555 46.6574 86.3555ZM52.2918 86.3555C52.5066 86.3555 52.7052 86.3115 52.8875 86.2236C53.0698 86.1357 53.2195 86.0153 53.3367 85.8623C53.4539 85.7061 53.5206 85.5286 53.5369 85.3301H54.3963C54.38 85.6426 54.2742 85.9339 54.0789 86.2041C53.8868 86.471 53.6346 86.6875 53.3221 86.8535C53.0096 87.0163 52.6661 87.0977 52.2918 87.0977C51.8947 87.0977 51.548 87.0277 51.2518 86.8877C50.9588 86.7477 50.7146 86.5557 50.5193 86.3115C50.3273 86.0674 50.1824 85.7874 50.0848 85.4717C49.9904 85.1527 49.9432 84.8158 49.9432 84.4609V84.2559C49.9432 83.901 49.9904 83.5658 50.0848 83.25C50.1824 82.931 50.3273 82.6494 50.5193 82.4053C50.7146 82.1611 50.9588 81.9691 51.2518 81.8291C51.548 81.6891 51.8947 81.6191 52.2918 81.6191C52.7052 81.6191 53.0665 81.7038 53.3758 81.873C53.685 82.0391 53.9275 82.2669 54.1033 82.5566C54.2824 82.8431 54.38 83.1686 54.3963 83.5332H53.5369C53.5206 83.3151 53.4588 83.1182 53.3514 82.9424C53.2472 82.7666 53.104 82.6266 52.9217 82.5225C52.7426 82.415 52.5327 82.3613 52.2918 82.3613C52.0151 82.3613 51.7824 82.4167 51.5936 82.5273C51.408 82.6348 51.2599 82.7812 51.1492 82.9668C51.0418 83.1491 50.9637 83.3525 50.9148 83.5771C50.8693 83.7985 50.8465 84.0247 50.8465 84.2559V84.4609C50.8465 84.6921 50.8693 84.9199 50.9148 85.1445C50.9604 85.3691 51.0369 85.5726 51.1443 85.7549C51.255 85.9372 51.4031 86.0837 51.5887 86.1943C51.7775 86.3018 52.0118 86.3555 52.2918 86.3555ZM56.7934 81.7168V87H55.89V81.7168H56.7934ZM60.2602 81.7168L57.7553 84.7441H56.4906L56.3539 83.9531H57.3891L59.1615 81.7168H60.2602ZM59.2885 87L57.3451 84.6074L57.9262 83.9531L60.4359 87H59.2885ZM62.5986 85.5693L65.0352 81.7168H65.9434V87H65.0352V83.1475L62.5986 87H61.7002V81.7168H62.5986V85.5693ZM68.7701 85.5693L71.2066 81.7168H72.1148V87H71.2066V83.1475L68.7701 87H67.8717V81.7168H68.7701V85.5693ZM70.7135 79.8027H71.4459C71.4459 80.0566 71.3873 80.2829 71.2701 80.4814C71.1529 80.6768 70.9853 80.8298 70.7672 80.9404C70.5491 81.0511 70.2903 81.1064 69.9908 81.1064C69.5383 81.1064 69.1803 80.986 68.9166 80.7451C68.6562 80.501 68.526 80.1868 68.526 79.8027H69.2584C69.2584 79.9948 69.3137 80.1641 69.4244 80.3105C69.5351 80.457 69.7239 80.5303 69.9908 80.5303C70.2512 80.5303 70.4368 80.457 70.5475 80.3105C70.6581 80.1641 70.7135 79.9948 70.7135 79.8027ZM77.9148 84.4805H78.8914L77.3631 87H76.3865L77.9148 84.4805ZM78.6717 81.7168H80.8787V87H79.9754V82.4492H78.6717C78.4145 82.4492 78.2046 82.4932 78.0418 82.5811C77.879 82.6657 77.7602 82.7764 77.6854 82.9131C77.6105 83.0498 77.573 83.1914 77.573 83.3379C77.573 83.4811 77.6072 83.6195 77.6756 83.7529C77.7439 83.8831 77.8514 83.9906 77.9979 84.0752C78.1443 84.1598 78.3331 84.2021 78.5643 84.2021H80.2195V84.9443H78.5643C78.2615 84.9443 77.993 84.9036 77.7586 84.8223C77.5242 84.7409 77.3257 84.6286 77.1629 84.4854C77.0001 84.3389 76.8764 84.168 76.7918 83.9727C76.7072 83.7741 76.6648 83.5592 76.6648 83.3281C76.6648 83.097 76.7088 82.8838 76.7967 82.6885C76.8878 82.4932 77.018 82.3223 77.1873 82.1758C77.3598 82.0293 77.5698 81.917 77.8172 81.8389C78.0678 81.7575 78.3527 81.7168 78.6717 81.7168ZM84.7064 84.4756H83.7348V83.9189H84.6332C84.8839 83.9189 85.0824 83.888 85.2289 83.8262C85.3754 83.7611 85.4796 83.6715 85.5414 83.5576C85.6033 83.4437 85.6342 83.3102 85.6342 83.1572C85.6342 83.0205 85.5984 82.8919 85.5268 82.7715C85.4584 82.6478 85.3477 82.5485 85.1947 82.4736C85.0417 82.3955 84.8367 82.3564 84.5795 82.3564C84.3712 82.3564 84.1824 82.3939 84.0131 82.4688C83.8438 82.5404 83.7087 82.6396 83.6078 82.7666C83.5102 82.8903 83.4613 83.0303 83.4613 83.1865H82.558C82.558 82.8643 82.6492 82.5876 82.8314 82.3564C83.017 82.1221 83.2628 81.9414 83.5687 81.8145C83.878 81.6875 84.2149 81.624 84.5795 81.624C84.8855 81.624 85.1589 81.6582 85.3998 81.7266C85.6439 81.7917 85.8506 81.8893 86.0199 82.0195C86.1892 82.1465 86.3178 82.306 86.4057 82.498C86.4968 82.6868 86.5424 82.9066 86.5424 83.1572C86.5424 83.3363 86.5001 83.5055 86.4154 83.665C86.3308 83.8245 86.2087 83.9661 86.0492 84.0898C85.8897 84.2103 85.696 84.3047 85.4682 84.373C85.2436 84.4414 84.9896 84.4756 84.7064 84.4756ZM83.7348 84.1338H84.7064C85.0222 84.1338 85.3005 84.1647 85.5414 84.2266C85.7823 84.2852 85.9841 84.373 86.1469 84.4902C86.3096 84.6074 86.4317 84.7523 86.5131 84.9248C86.5977 85.0941 86.64 85.2894 86.64 85.5107C86.64 85.7581 86.5896 85.9811 86.4887 86.1797C86.391 86.375 86.251 86.541 86.0687 86.6777C85.8865 86.8145 85.6684 86.9186 85.4145 86.9902C85.1638 87.0618 84.8855 87.0977 84.5795 87.0977C84.2377 87.0977 83.9057 87.0391 83.5834 86.9219C83.2611 86.8047 82.9958 86.624 82.7875 86.3799C82.5792 86.1325 82.475 85.8184 82.475 85.4375H83.3783C83.3783 85.597 83.4288 85.7484 83.5297 85.8916C83.6306 86.0348 83.7706 86.1504 83.9496 86.2383C84.1319 86.3262 84.3419 86.3701 84.5795 86.3701C84.8334 86.3701 85.045 86.3311 85.2143 86.2529C85.3835 86.1748 85.5105 86.0706 85.5951 85.9404C85.683 85.8102 85.727 85.6686 85.727 85.5156C85.727 85.3171 85.6879 85.1576 85.6098 85.0371C85.5316 84.9167 85.4112 84.8288 85.2484 84.7734C85.0889 84.7148 84.8839 84.6855 84.6332 84.6855H83.7348V84.1338ZM88.9541 83.5332H90.541C90.9674 83.5332 91.3271 83.6081 91.6201 83.7578C91.9131 83.9043 92.1344 84.1077 92.2842 84.3682C92.4372 84.6253 92.5137 84.9183 92.5137 85.2471C92.5137 85.4912 92.4714 85.7207 92.3867 85.9355C92.3021 86.1471 92.1751 86.3327 92.0059 86.4922C91.8398 86.6517 91.6331 86.777 91.3857 86.8682C91.1416 86.9561 90.86 87 90.541 87H88.2949V81.7168H89.1982V86.2578H90.541C90.8014 86.2578 91.0098 86.2106 91.166 86.1162C91.3223 86.0218 91.4346 85.8997 91.5029 85.75C91.5713 85.6003 91.6055 85.444 91.6055 85.2812C91.6055 85.1217 91.5713 84.9655 91.5029 84.8125C91.4346 84.6595 91.3223 84.5326 91.166 84.4316C91.0098 84.3275 90.8014 84.2754 90.541 84.2754H88.9541V83.5332ZM94.3936 81.7168V87H93.4902V81.7168H94.3936ZM97.357 81.7168V87H96.4537V81.7168H97.357ZM100.824 81.7168L98.3189 84.7441H97.0543L96.9176 83.9531H97.9527L99.7252 81.7168H100.824ZM99.8521 87L97.9088 84.6074L98.4898 83.9531L101 87H99.8521Z" fill="#410002"/>
</svg>
